<?xml version="1.0" encoding="UTF-8"?>
<svg version="1.1" xmlns="http://www.w3.org/2000/svg" width="558" height="447">
<path d="M0 0 C1.20785156 0.02835938 2.41570312 0.05671875 3.66015625 0.0859375 C43.00500346 1.71400014 78.89743556 20.22381028 107 47 C107.68835938 47.64710937 108.37671875 48.29421875 109.0859375 48.9609375 C110.43674662 50.26101201 111.72835974 51.62238972 113 53 C113 53.66 113 54.32 113 55 C113.99 55.33 114.98 55.66 116 56 C117.34692383 57.42358398 117.34692383 57.42358398 118.70703125 59.24609375 C119.2081543 59.91310303 119.70927734 60.5801123 120.22558594 61.26733398 C120.74926758 61.98348877 121.27294922 62.69964355 121.8125 63.4375 C122.35293945 64.17105713 122.89337891 64.90461426 123.45019531 65.66040039 C133.98569892 80.09658668 142.45002242 96.75128599 147.5 113.9375 C147.69980469 114.58267578 147.89960938 115.22785156 148.10546875 115.89257812 C152.11948938 129.45587712 153.5155187 142.54983839 153.44604492 156.62548828 C153.43755142 159.23420784 153.46640336 161.84071417 153.49804688 164.44921875 C153.5713094 182.04441841 150.98666948 202.02666105 143 218 C139.50155614 217.36610765 137.15913124 215.94822306 134.25 213.9375 C133.45078125 213.38964844 132.6515625 212.84179688 131.828125 212.27734375 C131.22484375 211.85582031 130.6215625 211.43429688 130 211 C130.90332214 206.33283562 131.82122839 201.68387861 132.953125 197.06640625 C138.58221944 173.79098982 139.26064529 151.36484802 134 128 C133.73445313 126.79085937 133.46890625 125.58171875 133.1953125 124.3359375 C128.65554422 105.57424027 120.20009601 88.49348435 108.50390625 73.1796875 C107 71 107 71 107 69 C106.01 68.67 105.02 68.34 104 68 C102.75543914 66.52549718 101.57649186 64.99499409 100.4375 63.4375 C96.75629674 58.6594764 92.75217628 55.15521389 87.90625 51.59375 C87.2771875 51.0678125 86.648125 50.541875 86 50 C86 49.34 86 48.68 86 48 C85.29875 47.7525 84.5975 47.505 83.875 47.25 C80.60485452 45.82819762 77.858878 44.12753712 75 42 C75 41.34 75 40.68 75 40 C74.43152344 39.89042969 73.86304688 39.78085938 73.27734375 39.66796875 C70.68377385 38.90724756 68.83535487 37.77279967 66.5625 36.3125 C55.33946208 29.47753941 43.63253253 25.3205205 31.09863281 21.62304688 C29.30573761 21.09076807 27.52275287 20.52529709 25.7421875 19.953125 C15.13353196 17.25112923 4.66314169 16.64093186 -6.25 16.6875 C-6.92975891 16.68932281 -7.60951782 16.69114563 -8.30987549 16.69302368 C-18.85564114 16.74054107 -28.765418 17.3434539 -39 20 C-39.70753418 20.18224121 -40.41506836 20.36448242 -41.14404297 20.55224609 C-59.87675012 25.46850359 -78.56825849 33.12942961 -94 45 C-95.16789062 45.88171875 -95.16789062 45.88171875 -96.359375 46.78125 C-105.00324988 53.08411568 -105.00324988 53.08411568 -112 61 C-112.66 61 -113.32 61 -114 61 C-114.268125 61.5775 -114.53625 62.155 -114.8125 62.75 C-116.02929189 65.05550043 -117.30333879 67.02056192 -119 69 C-119.66 69 -120.32 69 -121 69 C-121.23460937 69.52207031 -121.46921875 70.04414062 -121.7109375 70.58203125 C-123.07212859 73.13529574 -124.66760229 75.45464645 -126.32592773 77.82226562 C-132.32012786 86.42886006 -136.8205055 95.40296227 -141 105 C-141.51691406 106.15371094 -142.03382813 107.30742187 -142.56640625 108.49609375 C-155.36007314 139.76562835 -156.07035666 178.69993536 -143 210 C-142.58234375 210.97195312 -142.1646875 211.94390625 -141.734375 212.9453125 C-141.28578125 213.99460938 -140.8371875 215.04390625 -140.375 216.125 C-139.94960937 217.09695313 -139.52421875 218.06890625 -139.0859375 219.0703125 C-137.96465883 222.09534488 -137.26424268 224.7835287 -137 228 C-137.99 228.99 -137.99 228.99 -139 230 C-139.40047444 232.32275177 -139.7397104 234.65739357 -140 237 C-143.465 237.99 -143.465 237.99 -147 239 C-155.51302313 226.17008925 -160.09579732 211.76355062 -164 197 C-164.31066406 195.82695312 -164.62132812 194.65390625 -164.94140625 193.4453125 C-167.19931698 183.99917389 -167.75659391 174.66930693 -168 165 C-168.02191406 164.23574707 -168.04382813 163.47149414 -168.06640625 162.68408203 C-168.42845558 148.44045793 -166.83194053 135.06145474 -163.625 121.1875 C-163.42817627 120.32793701 -163.23135254 119.46837402 -163.02856445 118.58276367 C-161.54993798 112.47146007 -159.47275176 106.77595308 -157 101 C-156.59136719 100.03449219 -156.18273437 99.06898438 -155.76171875 98.07421875 C-150.50092325 86.38568765 -144.30543189 75.52841654 -137 65 C-136.48953125 64.23945312 -135.9790625 63.47890625 -135.453125 62.6953125 C-134.35767815 61.09080505 -133.18791645 59.53730364 -132 58 C-131.34 58 -130.68 58 -130 58 C-129.62294922 57.13181641 -129.62294922 57.13181641 -129.23828125 56.24609375 C-127.84407086 53.71716323 -126.26209642 52.0656954 -124.1875 50.0625 C-123.46949219 49.36382812 -122.75148437 48.66515625 -122.01171875 47.9453125 C-121.34785156 47.30335937 -120.68398437 46.66140625 -120 46 C-119.175 45.154375 -118.35 44.30875 -117.5 43.4375 C-86.30752335 13.02483526 -43.03059893 -1.20595309 0 0 Z " fill="#C49F54" transform="translate(286,41)"/>
<path d="M0 0 C0.98176712 0.01419228 0.98176712 0.01419228 1.98336792 0.02867126 C4.12080844 0.0620254 6.25762886 0.11022477 8.39477539 0.15869141 C9.88691138 0.1848921 11.37906408 0.21015636 12.87123108 0.23452759 C16.77911702 0.30085016 20.68664708 0.37981208 24.59423828 0.46148682 C28.58946175 0.5427294 32.58489257 0.61190815 36.58032227 0.68212891 C44.40545209 0.82142284 52.23019391 0.97519742 60.05493164 1.13525391 C60.38493164 6.08525391 60.71493164 11.03525391 61.05493164 16.13525391 C61.71493164 16.13525391 62.37493164 16.13525391 63.05493164 16.13525391 C64.04493164 17.62025391 64.04493164 17.62025391 65.05493164 19.13525391 C70.79642978 20.35885187 72.37198346 20.40843318 78.05493164 18.13525391 C78.71493164 13.51525391 79.37493164 8.89525391 80.05493164 4.13525391 C79.39493164 4.13525391 78.73493164 4.13525391 78.05493164 4.13525391 C78.05493164 3.14525391 78.05493164 2.15525391 78.05493164 1.13525391 C81.11766995 1.08115254 84.17944616 1.04153166 87.24243164 1.01025391 C88.10674805 0.99349609 88.97106445 0.97673828 89.86157227 0.95947266 C95.89575317 0.91323372 99.85759293 1.3564559 104.67993164 5.26025391 C110.84542506 12.72374594 110.46263295 20.56594461 110.34790039 29.82275391 C110.34365555 31.12100098 110.33941071 32.41924805 110.33503723 33.75683594 C110.32366586 37.18298148 110.29426707 40.60873625 110.26092529 44.034729 C110.23005644 47.54083981 110.21649624 51.04701469 110.20141602 54.55322266 C110.16938837 61.41405872 110.11828737 68.27463747 110.05493164 75.13525391 C108.57586272 75.16214607 107.09665681 75.18160012 105.61743164 75.19775391 C104.7937207 75.20935547 103.97000977 75.22095703 103.12133789 75.23291016 C101.05493164 75.13525391 101.05493164 75.13525391 100.05493164 74.13525391 C99.72493164 62.58525391 99.39493164 51.03525391 99.05493164 39.13525391 C48.89493164 39.13525391 -1.26506836 39.13525391 -52.94506836 39.13525391 C-53.27506836 58.93525391 -53.60506836 78.73525391 -53.94506836 99.13525391 C-54.93506836 99.13525391 -55.92506836 99.13525391 -56.94506836 99.13525391 C-56.94506836 99.79525391 -56.94506836 100.45525391 -56.94506836 101.13525391 C-59.42006836 101.63025391 -59.42006836 101.63025391 -61.94506836 102.13525391 C-61.12264648 102.19841797 -60.30022461 102.26158203 -59.45288086 102.32666016 C-49.9578551 103.36826229 -43.3348917 105.9605557 -37.06616211 113.35009766 C-31.81487154 120.7525193 -30.03800462 128.13548083 -30.94506836 137.13525391 C-32.29047292 142.88475619 -35.24428216 148.54285915 -38.94506836 153.13525391 C-39.60506836 153.13525391 -40.26506836 153.13525391 -40.94506836 153.13525391 C-40.94506836 153.79525391 -40.94506836 154.45525391 -40.94506836 155.13525391 C-42.17289698 155.76287846 -43.40240672 156.38721455 -44.63256836 157.01025391 C-45.65930664 157.53232422 -45.65930664 157.53232422 -46.70678711 158.06494141 C-53.73052602 161.42358793 -60.10384847 162.56868773 -67.74194336 160.30712891 C-70.196826 159.33389141 -72.57267577 158.29396259 -74.94506836 157.13525391 C-75.6140918 156.86712891 -76.28311523 156.59900391 -76.97241211 156.32275391 C-82.28847468 153.12258951 -86.79396274 145.9446625 -88.44506836 140.01025391 C-89.70525987 130.24376971 -89.01778125 122.27274552 -83.32006836 113.94775391 C-79.9488958 109.75270377 -75.8506713 106.38756552 -70.94506836 104.13525391 C-68.16772461 103.97900391 -68.16772461 103.97900391 -65.94506836 104.13525391 C-65.94506836 103.14525391 -65.94506836 102.15525391 -65.94506836 101.13525391 C-64.95506836 101.13525391 -63.96506836 101.13525391 -62.94506836 101.13525391 C-62.95617142 100.02327133 -62.96727448 98.91128876 -62.97871399 97.76560974 C-63.08016658 87.27526997 -63.15507064 76.78503001 -63.20412922 66.29431057 C-63.23019897 60.90115821 -63.26554964 55.50840257 -63.32226562 50.11547852 C-63.37667816 44.9088712 -63.40650862 39.70264497 -63.41945457 34.49577522 C-63.42867781 32.51145493 -63.44668892 30.52715499 -63.47371864 28.54299736 C-63.51013181 25.75876019 -63.51500859 22.97608819 -63.51269531 20.19165039 C-63.53067169 19.37525085 -63.54864807 18.55885132 -63.56716919 17.7177124 C-63.51577499 11.98336181 -62.02363143 8.24127098 -57.94506836 4.13525391 C-52.60743807 0.97624823 -48.01452187 0.74700739 -42.00756836 0.94775391 C-41.22833008 0.96128906 -40.4490918 0.97482422 -39.64624023 0.98876953 C-37.74554432 1.02375166 -35.84521002 1.07754432 -33.94506836 1.13525391 C-32.76071729 3.50395605 -32.90604634 4.82142328 -33.00756836 7.44775391 C-33.03130826 11.1452431 -32.93833789 13.90805562 -30.94506836 17.13525391 C-28.13064701 19.48060503 -26.62144152 20.13525391 -22.94506836 20.13525391 C-18.88077021 18.78048786 -17.39399408 17.70368853 -14.94506836 14.13525391 C-14.23697372 10.13660185 -14.01622962 6.1914459 -13.94506836 2.13525391 C-9.10309365 0.56932166 -5.14132307 -0.09718947 0 0 Z M-60.94506836 115.13525391 C-63.27373065 117.02371573 -63.27373065 117.02371573 -63.14038086 120.17431641 C-63.11717773 121.35767578 -63.09397461 122.54103516 -63.07006836 123.76025391 C-63.04299805 125.54302734 -63.04299805 125.54302734 -63.01538086 127.36181641 C-62.99217773 128.27705078 -62.96897461 129.19228516 -62.94506836 130.13525391 C-63.60506836 129.80525391 -64.26506836 129.47525391 -64.94506836 129.13525391 C-66.81886441 129.06491622 -68.69507937 129.05095171 -70.57006836 129.07275391 C-72.0744043 129.08628906 -72.0744043 129.08628906 -73.60913086 129.10009766 C-74.76541992 129.1175 -74.76541992 129.1175 -75.94506836 129.13525391 C-76.62655066 131.02704594 -76.62655066 131.02704594 -76.94506836 133.13525391 C-75.08217346 135.43585924 -75.08217346 135.43585924 -72.12475586 135.33056641 C-69.06486003 135.26546224 -66.00496419 135.20035807 -62.94506836 135.13525391 C-62.94506836 139.09525391 -62.94506836 143.05525391 -62.94506836 147.13525391 C-61.62506836 147.79525391 -60.30506836 148.45525391 -58.94506836 149.13525391 C-56.64446302 147.27235901 -56.64446302 147.27235901 -56.74975586 144.31494141 C-56.77295898 143.22439453 -56.79616211 142.13384766 -56.82006836 141.01025391 C-56.86131836 139.07150391 -56.90256836 137.13275391 -56.94506836 135.13525391 C-52.98506836 135.13525391 -49.02506836 135.13525391 -44.94506836 135.13525391 C-44.28506836 133.81525391 -43.62506836 132.49525391 -42.94506836 131.13525391 C-43.44006836 130.14525391 -43.44006836 130.14525391 -43.94506836 129.13525391 C-48.23506836 129.13525391 -52.52506836 129.13525391 -56.94506836 129.13525391 C-56.94506836 125.17525391 -56.94506836 121.21525391 -56.94506836 117.13525391 C-58.26506836 116.47525391 -59.58506836 115.81525391 -60.94506836 115.13525391 Z " fill="#702228" transform="translate(298.945068359375,173.86474609375)"/>
<path d="M0 0 C1.03825928 0.13422363 2.07651855 0.26844727 3.14624023 0.40673828 C23.73614249 3.21162384 45.37016288 9.26204872 63.03125 20.41796875 C65.03817801 21.6577558 67.06178466 22.73062287 69.1875 23.75 C69.1875 24.41 69.1875 25.07 69.1875 25.75 C69.77015625 25.86472656 70.3528125 25.97945313 70.953125 26.09765625 C73.35273135 26.79824062 74.91610933 27.73192595 76.9375 29.1875 C77.55109375 29.61933594 78.1646875 30.05117188 78.796875 30.49609375 C79.25578125 30.90988281 79.7146875 31.32367188 80.1875 31.75 C80.1875 32.41 80.1875 33.07 80.1875 33.75 C80.77015625 34.0078125 81.3528125 34.265625 81.953125 34.53125 C84.3677903 35.84834017 86.00490177 37.30088384 87.9375 39.25 C88.55109375 39.8584375 89.1646875 40.466875 89.796875 41.09375 C91.1875 42.75 91.1875 42.75 91.1875 44.75 C93.05803397 44.61965506 93.05803397 44.61965506 95.1875 43.75 C95.70699219 43.04230469 96.22648438 42.33460938 96.76171875 41.60546875 C100.0873261 37.69078442 104.00761507 35.10407291 108.25 32.25 C109.1054541 31.67121094 109.9609082 31.09242188 110.84228516 30.49609375 C116.73843068 26.57054625 122.53916468 23.24064502 129.1875 20.75 C130.82332031 20.09451172 130.82332031 20.09451172 132.4921875 19.42578125 C141.17674377 15.9893752 148.82116848 13.43851855 158.19140625 13.44921875 C159.03291733 13.44493362 159.87442841 13.4406485 160.74143982 13.43623352 C162.51047876 13.43052016 164.27954118 13.42996773 166.04858398 13.43432617 C168.74568783 13.43749493 171.44170259 13.4139598 174.13867188 13.38867188 C175.86458196 13.38639935 177.59049497 13.38569517 179.31640625 13.38671875 C180.11655655 13.377509 180.91670685 13.36829926 181.74110413 13.35881042 C186.66085448 13.39925067 189.85355742 14.19058186 194.1875 16.75 C203.92155349 20.08382418 214.01205605 19.5332834 223.71484375 16.50390625 C226.19000381 15.7492366 228.64425553 15.21861213 231.1875 14.75 C231.1875 14.09 231.1875 13.43 231.1875 12.75 C233.1675 12.42 235.1475 12.09 237.1875 11.75 C237.50203125 12.59304688 237.8165625 13.43609375 238.140625 14.3046875 C238.78257812 15.94824219 238.78257812 15.94824219 239.4375 17.625 C239.85515625 18.71554687 240.2728125 19.80609375 240.703125 20.9296875 C242.30762454 23.97823662 243.08879949 24.53356798 246.1875 25.75 C246.5175 26.41 246.8475 27.07 247.1875 27.75 C248.033125 28.141875 248.87875 28.53375 249.75 28.9375 C250.9565625 29.8346875 250.9565625 29.8346875 252.1875 30.75 C252.625 34.3125 252.625 34.3125 252.1875 37.75 C250.1875 39.75 250.1875 39.75 247.38671875 39.83203125 C241.37916594 39.37093988 235.65957833 38.73555307 229.8125 37.25 C214.75588983 33.54459174 198.58566732 34.51760578 183.1875 34.75 C182.07375 34.76087646 182.07375 34.76087646 180.9375 34.77197266 C163.00384306 35.03029437 144.91313329 39.44361368 128.1875 45.75 C127.34058594 46.04261719 126.49367188 46.33523438 125.62109375 46.63671875 C116.67903552 49.89239399 107.44049587 54.77971243 99.8359375 60.52734375 C98.1875 61.75 98.1875 61.75 96.1875 61.75 C96.1875 62.41 96.1875 63.07 96.1875 63.75 C93.35702426 65.16523787 91.32513812 65.02959152 88.1875 64.75 C85.90625 63.28125 85.90625 63.28125 83.6875 61.25 C67.5335192 47.61632824 46.60376681 40.18390103 26.1875 35.75 C25.10960205 35.48960937 24.0317041 35.22921875 22.92114258 34.9609375 C11.4757326 32.45007233 0.23913925 32.29115533 -11.44799805 32.35888672 C-14.74114506 32.37495679 -18.0330621 32.35896551 -21.32617188 32.33984375 C-32.29409104 32.33031024 -42.69697772 32.81267931 -53.44384766 35.07641602 C-57.73213724 35.93388746 -61.46239291 36.13158834 -65.8125 35.75 C-66.4725 35.09 -67.1325 34.43 -67.8125 33.75 C-67.47547118 26.67239468 -67.47547118 26.67239468 -65.375 23.75 C-63.8125 22.75 -63.8125 22.75 -61.8125 22.75 C-59.66351605 17.86677689 -58.82584365 12.93893217 -57.88671875 7.7109375 C-56.52768973 3.96495932 -55.33658937 3.47721803 -51.8125 1.75 C-48.97265625 1.1340332 -48.97265625 1.1340332 -45.875 0.80078125 C-44.73160156 0.67509766 -43.58820313 0.54941406 -42.41015625 0.41992188 C-41.22292969 0.30197266 -40.03570312 0.18402344 -38.8125 0.0625 C-37.65621094 -0.06705078 -36.49992187 -0.19660156 -35.30859375 -0.33007812 C-23.3912438 -1.58839049 -11.879691 -1.55983028 0 0 Z " fill="#73252A" transform="translate(185.8125,324.25)"/>
<path d="M0 0 C2.28125 1.20703125 2.28125 1.20703125 4.5 2.8125 C6.9975953 4.58458348 9.39864254 6.22779574 12.0625 7.75 C12.701875 8.1625 13.34125 8.575 14 9 C14 9.66 14 10.32 14 11 C14.84111328 11.15662109 14.84111328 11.15662109 15.69921875 11.31640625 C18.44350892 12.1317726 20.41379467 13.37152494 22.8125 14.9375 C23.77800781 15.56527344 24.74351562 16.19304687 25.73828125 16.83984375 C29.97998677 19.64902118 34.21392827 22.46962833 38.44165039 25.29980469 C44.81304382 29.55983757 51.278091 33.66396403 57.76953125 37.73828125 C63.17147541 41.14566141 68.46823921 44.64102733 73.62890625 48.40625 C75.93176328 50.04811779 75.93176328 50.04811779 78.40234375 51.09375 C80.80620877 52.20907578 82.30541546 52.9489045 84 55 C84.67799681 59.40697924 84.46613622 63.57818007 84 68 C80.77396455 69.61301773 77.25289962 69.12053599 73.7109375 69.09765625 C72.48330185 69.09553383 72.48330185 69.09553383 71.23086548 69.09336853 C68.61220675 69.0877629 65.99363296 69.07520948 63.375 69.0625 C61.60156373 69.05748572 59.82812613 69.05292269 58.0546875 69.04882812 C53.70309218 69.03779164 49.3515605 69.02052325 45 69 C44.88245361 68.31365479 44.76490723 67.62730957 44.64379883 66.92016602 C44.39666138 65.56942993 44.39666138 65.56942993 44.14453125 64.19140625 C43.98573486 63.29881104 43.82693848 62.40621582 43.66333008 61.48657227 C42.69457728 57.85508636 41.00976763 56.16983248 38 54 C33.82797533 52.39537513 31.06827823 53.39161093 27 55 C27 55.66 27 56.32 27 57 C26.34 57 25.68 57 25 57 C24.67 60.96 24.34 64.92 24 69 C20.11259322 69.77748136 17.41224518 70.08357656 13.5625 70 C8.74129901 69.95040851 3.97125394 70.08157776 -0.84199524 70.34939575 C-15.2503865 71.13733031 -29.65706454 71.15407366 -44.08178711 71.13037109 C-47.64059879 71.1246025 -51.19933619 71.12801672 -54.75814533 71.13394356 C-57.54386447 71.13757219 -60.32956619 71.13640126 -63.11528587 71.13381577 C-65.05661952 71.13284095 -66.99795389 71.1358341 -68.93928528 71.13894653 C-86.90866737 71.09133263 -86.90866737 71.09133263 -90 68 C-91.03562879 63.79849333 -91.08940497 60.19240205 -90 56 C-86.51918039 52.1337404 -82.41899361 49.65450084 -78 47 C-76.27070692 45.87519432 -74.54153481 44.75020265 -72.8125 43.625 C-71.91402344 43.06554687 -71.01554687 42.50609375 -70.08984375 41.9296875 C-66.3241741 39.57792921 -62.59945758 37.16630816 -58.875 34.75 C-57.41019991 33.80071388 -55.9453556 32.85149598 -54.48046875 31.90234375 C-53.74231934 31.42394043 -53.00416992 30.94553711 -52.24365234 30.45263672 C-50.01413464 29.00915137 -47.78277056 27.56856639 -45.55078125 26.12890625 C-39.31762396 22.10646243 -33.0922497 18.0794802 -26.9375 13.9375 C-24.96111158 12.62082018 -22.9816794 11.30870306 -21 10 C-20.34547852 9.56703613 -19.69095703 9.13407227 -19.01660156 8.68798828 C-16.87340266 7.27896987 -14.71946864 5.88782841 -12.5625 4.5 C-11.88759521 4.05390381 -11.21269043 3.60780762 -10.51733398 3.14819336 C-4.25019834 -0.84140982 -4.25019834 -0.84140982 0 0 Z M-11 33 C-12.61469184 36.22938367 -12.58079278 39.50856753 -12 43 C-10.10350449 46.14658666 -10.10350449 46.14658666 -7 48 C-3.17950672 48.54578475 -0.78710432 48.29735052 2.8125 46.9375 C5.87277321 44.2269723 6.37994025 41.99594061 7 38 C6.28807793 34.17341886 5.18433584 33.14827013 2.125 30.6875 C-3.52388602 27.63710155 -6.22183367 29.38982988 -11 33 Z " fill="#5F605C" transform="translate(241,101)"/>
<path d="M0 0 C7 7.05737705 7 7.05737705 7 11 C7.66 11 8.32 11 9 11 C14.67703661 23.70443629 16.61088909 35.13565828 12.109375 48.6796875 C6.32248892 62.32020469 -2.74987255 69.28679036 -16 75 C-24.63946842 78.03786186 -37.18000536 76.96667701 -45.4453125 73.38671875 C-58.56634324 66.26444671 -66.1079296 57.30735776 -70.578125 43.171875 C-72.88747741 31.28298665 -70.89407972 19.89202383 -64.5078125 9.59375 C-63.09191809 7.62763756 -61.61017369 5.80874739 -60 4 C-58.8553125 2.6696875 -58.8553125 2.6696875 -57.6875 1.3125 C-41.54893999 -12.57416792 -16.69281172 -13.91067643 0 0 Z M-45 5 C-45.62261719 5.350625 -46.24523437 5.70125 -46.88671875 6.0625 C-53.93992619 10.46884218 -58.21774599 17.81852634 -60.53515625 25.67578125 C-62.37320686 34.86603432 -60.45024849 42.84121111 -56 51 C-55.34 51.99 -54.68 52.98 -54 54 C-53.34 54 -52.68 54 -52 54 C-51.76539063 54.59554687 -51.53078125 55.19109375 -51.2890625 55.8046875 C-48.29649772 60.901116 -41.37030649 63.85231329 -35.8125 65.375 C-26.30119621 66.93423013 -17.22964053 65.53832242 -9.11328125 60.046875 C-2.38144621 54.29110572 2.64566848 47.90372403 4 39 C4.86044599 27.15232056 2.89669198 19.34856814 -4.81640625 10.234375 C-10.28572489 4.6378629 -16.71718895 1.40519444 -24.55078125 0.6640625 C-32.32690646 0.58331354 -38.321334 0.86493999 -45 5 Z " fill="#C4A159" transform="translate(424,262)"/>
<path d="M0 0 C0.97259766 -0.01224609 1.94519531 -0.02449219 2.94726562 -0.03710938 C8.43311846 -0.04825193 13.00560769 0.35902196 18.1875 2.1875 C18.578125 8.046875 18.578125 8.046875 18.1875 10.1875 C17.5288092 10.75732605 16.87011841 11.3271521 16.19146729 11.91424561 C13.51417707 14.95130205 13.70279463 16.69109589 13.73339844 20.70019531 C13.73252228 21.66667496 13.73252228 21.66667496 13.73162842 22.65267944 C13.73440666 24.77421677 13.76548226 26.89433436 13.796875 29.015625 C13.80433841 30.48963656 13.81003088 31.96365806 13.81402588 33.43768311 C13.8292746 37.31115267 13.86854893 41.18401916 13.9128418 45.05725098 C13.95381148 49.01204267 13.97204046 52.96693212 13.9921875 56.921875 C14.03504472 64.67735782 14.10328578 72.4323443 14.1875 80.1875 C14.83493164 80.47737793 15.48236328 80.76725586 16.14941406 81.06591797 C18.1875 82.1875 18.1875 82.1875 18.796875 84.1328125 C18.92708333 86.15104167 19.05729167 88.16927083 19.1875 90.1875 C15.59305817 92.58379455 13.03888348 92.44531331 8.89453125 92.3828125 C8.18850266 92.3799826 7.48247406 92.37715271 6.75505066 92.37423706 C4.50319367 92.36305464 2.25173648 92.3379542 0 92.3125 C-1.52798904 92.30246767 -3.05598433 92.29334226 -4.58398438 92.28515625 C-8.32697663 92.26312172 -12.06967056 92.22860567 -15.8125 92.1875 C-15.8395043 90.72926788 -15.85889787 89.27089325 -15.875 87.8125 C-15.88660156 87.00039063 -15.89820313 86.18828125 -15.91015625 85.3515625 C-15.8125 83.1875 -15.8125 83.1875 -14.8125 81.1875 C-13.3275 80.6925 -13.3275 80.6925 -11.8125 80.1875 C-11.4825 57.7475 -11.1525 35.3075 -10.8125 12.1875 C-12.1325 11.8575 -13.4525 11.5275 -14.8125 11.1875 C-16.18202673 8.44844655 -15.93871361 6.21662668 -15.8125 3.1875 C-14.8125 1.1875 -14.8125 1.1875 -13.05981445 0.57299805 C-8.73859668 -0.16825159 -4.37304687 0.00286382 0 0 Z " fill="#61615E" transform="translate(176.8125,174.8125)"/>
<path d="M0 0 C1.98 0 3.96 0 6 0 C6 0.66 6 1.32 6 2 C4.35 2.33 2.7 2.66 1 3 C1.82242188 3.06316406 2.64484375 3.12632812 3.4921875 3.19140625 C12.98721326 4.23300838 19.61017666 6.8253018 25.87890625 14.21484375 C31.13019682 21.6172654 32.90706374 29.00022692 32 38 C30.65459544 43.74950229 27.7007862 49.40760525 24 54 C23.34 54 22.68 54 22 54 C22 54.66 22 55.32 22 56 C20.77217138 56.62762455 19.54266164 57.25196065 18.3125 57.875 C17.62800781 58.22304688 16.94351563 58.57109375 16.23828125 58.9296875 C9.21454234 62.28833403 2.84121989 63.43343382 -4.796875 61.171875 C-7.25175764 60.1986375 -9.62760741 59.15870868 -12 58 C-12.66902344 57.731875 -13.33804688 57.46375 -14.02734375 57.1875 C-19.34340632 53.9873356 -23.84889438 46.80940859 -25.5 40.875 C-26.76019151 31.1085158 -26.07271289 23.13749162 -20.375 14.8125 C-17.00382744 10.61744986 -12.90560294 7.25231161 -8 5 C-5.22265625 4.84375 -5.22265625 4.84375 -3 5 C-3 4.01 -3 3.02 -3 2 C-2.01 2 -1.02 2 0 2 C0 1.34 0 0.68 0 0 Z M2 16 C-0.32866229 17.88846183 -0.32866229 17.88846183 -0.1953125 21.0390625 C-0.17210937 22.22242188 -0.14890625 23.40578125 -0.125 24.625 C-0.09792969 26.40777344 -0.09792969 26.40777344 -0.0703125 28.2265625 C-0.04710937 29.14179688 -0.02390625 30.05703125 0 31 C-0.66 30.67 -1.32 30.34 -2 30 C-3.87379605 29.92966231 -5.75001102 29.9156978 -7.625 29.9375 C-9.12933594 29.95103516 -9.12933594 29.95103516 -10.6640625 29.96484375 C-11.82035156 29.98224609 -11.82035156 29.98224609 -13 30 C-13.6814823 31.89179203 -13.6814823 31.89179203 -14 34 C-12.1371051 36.30060534 -12.1371051 36.30060534 -9.1796875 36.1953125 C-6.11979167 36.13020833 -3.05989583 36.06510417 0 36 C0 39.96 0 43.92 0 48 C1.32 48.66 2.64 49.32 4 50 C6.30060534 48.1371051 6.30060534 48.1371051 6.1953125 45.1796875 C6.17210937 44.08914063 6.14890625 42.99859375 6.125 41.875 C6.08375 39.93625 6.0425 37.9975 6 36 C9.96 36 13.92 36 18 36 C18.66 34.68 19.32 33.36 20 32 C19.505 31.01 19.505 31.01 19 30 C14.71 30 10.42 30 6 30 C6 26.04 6 22.08 6 18 C4.68 17.34 3.36 16.68 2 16 Z " fill="#C39D50" transform="translate(236,273)"/>
<path d="M0 0 C1.80791016 0.00966797 1.80791016 0.00966797 3.65234375 0.01953125 C5.53373047 0.04466797 5.53373047 0.04466797 7.453125 0.0703125 C8.72285156 0.07933594 9.99257812 0.08835938 11.30078125 0.09765625 C14.43508593 0.12122245 17.56901041 0.15412418 20.703125 0.1953125 C21.78515625 2.0078125 21.78515625 2.0078125 22.703125 4.1953125 C21.390625 7.1953125 21.390625 7.1953125 19.703125 10.1953125 C18.43056474 13.88651477 18.58977876 17.50299628 18.60546875 21.37890625 C18.60765915 22.45279099 18.60765915 22.45279099 18.6098938 23.54837036 C18.61369216 25.09907727 18.61980067 26.64977987 18.62796021 28.20046997 C18.64074083 30.65505847 18.64724376 33.10959283 18.65209961 35.56420898 C18.66352073 40.77460111 18.68276172 45.98494865 18.703125 51.1953125 C18.72672387 57.23356819 18.74711846 63.27179814 18.75906372 69.31008911 C18.76554378 71.7275129 18.77805145 74.14485802 18.79077148 76.56225586 C18.79440438 78.04540946 18.79775606 79.52856379 18.80078125 81.01171875 C18.80863647 82.95220093 18.80863647 82.95220093 18.81665039 84.93188477 C18.72462636 87.57722944 18.49997587 89.69289353 17.703125 92.1953125 C13.43251882 92.31120412 9.16231516 92.38246052 4.890625 92.4453125 C3.67568359 92.47882813 2.46074219 92.51234375 1.20898438 92.546875 C-0.53608398 92.56621094 -0.53608398 92.56621094 -2.31640625 92.5859375 C-3.92672729 92.6173584 -3.92672729 92.6173584 -5.56958008 92.64941406 C-8.296875 92.1953125 -8.296875 92.1953125 -10.2097168 90.40136719 C-11.296875 88.1953125 -11.296875 88.1953125 -10.671875 84.5078125 C-9.99125 82.868125 -9.99125 82.868125 -9.296875 81.1953125 C-7.811875 80.7003125 -7.811875 80.7003125 -6.296875 80.1953125 C-5.966875 58.0853125 -5.636875 35.9753125 -5.296875 13.1953125 C-6.616875 12.5353125 -7.936875 11.8753125 -9.296875 11.1953125 C-9.956875 10.5353125 -10.616875 9.8753125 -11.296875 9.1953125 C-11.171875 5.6953125 -11.171875 5.6953125 -10.296875 2.1953125 C-7.0313826 -0.17653692 -3.9350133 -0.03712277 0 0 Z " fill="#5E5F5B" transform="translate(212.296875,174.8046875)"/>
<path d="M0 0 C1.61527588 0.00290039 1.61527588 0.00290039 3.26318359 0.00585938 C21.22015272 0.09440216 39.17507892 0.64640332 57.125 1.125 C57.125 2.445 57.125 3.765 57.125 5.125 C56.55652344 5.34414063 55.98804688 5.56328125 55.40234375 5.7890625 C46.49021395 9.44913584 40.41902916 14.38988588 36.125 23.125 C35.135 25.765 34.145 28.405 33.125 31.125 C12.005 31.125 -9.115 31.125 -30.875 31.125 C-33.0930236 26.68895279 -33.47979784 23.95346797 -32.875 19.125 C-31.875 16.6875 -31.875 16.6875 -29.875 15.125 C-27.17072382 14.50093627 -24.66424558 14.30790135 -21.875 14.125 C-21.92720703 13.09439453 -21.92720703 13.09439453 -21.98046875 12.04296875 C-22.02107422 10.69138672 -22.02107422 10.69138672 -22.0625 9.3125 C-22.09730469 8.41917969 -22.13210937 7.52585937 -22.16796875 6.60546875 C-21.875 4.125 -21.875 4.125 -20.86328125 2.36328125 C-15.20219111 -1.16238786 -6.451497 -0.02886115 0 0 Z " fill="#61625E" transform="translate(172.875,268.875)"/>
<path d="M0 0 C12.52619065 -0.13911622 25.05219704 -0.24568063 37.57900333 -0.31087303 C43.39596435 -0.34216482 49.21239624 -0.38459967 55.02905273 -0.45263672 C60.64415615 -0.51790401 66.25875113 -0.55372224 71.87420464 -0.56926346 C74.01484619 -0.58033642 76.15546041 -0.60195982 78.29588509 -0.63438034 C81.29820664 -0.67804077 84.29843665 -0.68392998 87.30102539 -0.68115234 C88.62380745 -0.71350983 88.62380745 -0.71350983 89.97331238 -0.746521 C95.76889627 -0.68863513 98.65841583 0.64461666 102.80972958 4.71144676 C103.20251882 5.13666933 103.59530806 5.5618919 104 6 C103.67 6.99 103.34 7.98 103 9 C67.03 9 31.06 9 -6 9 C-6.33 8.01 -6.66 7.02 -7 6 C-6.030625 5.38125 -5.06125 4.7625 -4.0625 4.125 C-0.97164638 2.34321154 -0.97164638 2.34321154 0 0 Z " fill="#701F23" transform="translate(263,326)"/>
<path d="M0 0 C2.97 0 5.94 0 9 0 C9.19218308 6.78072043 9.37091972 13.56161018 9.53710938 20.34301758 C9.59556952 22.65073185 9.65772716 24.9583555 9.72363281 27.26586914 C9.81763431 30.57942202 9.89840789 33.89307148 9.9765625 37.20703125 C10.00875885 38.2414888 10.0409552 39.27594635 10.0741272 40.3417511 C10.10438492 41.78290535 10.10438492 41.78290535 10.13525391 43.25317383 C10.15746002 44.09922684 10.17966614 44.94527985 10.20254517 45.81697083 C10 48 10 48 8 51 C4.875 51.6875 4.875 51.6875 2 52 C2.20625 52.763125 2.4125 53.52625 2.625 54.3125 C3 57 3 57 1 60 C1.66 60.66 2.32 61.32 3 62 C2.01 62 1.02 62 0 62 C-1 61 -1 61 -1.09765625 59.15234375 C-1.06510417 57.1015625 -1.03255208 55.05078125 -1 53 C-1.66 53 -2.32 53 -3 53 C-3.69565324 43.32296655 -4.25402593 33.70820842 -4 24 C-3.98211426 23.30664551 -3.96422852 22.61329102 -3.94580078 21.89892578 C-3.87829899 19.63983307 -3.78663616 17.38291141 -3.6875 15.125 C-3.66510254 14.42318604 -3.64270508 13.72137207 -3.61962891 12.99829102 C-3.35630928 7.98866484 -2.16074564 4.43734896 0 0 Z " fill="#C29B4C" transform="translate(124,172)"/>
<path d="M0 0 C1.29808594 -0.01675781 2.59617187 -0.03351563 3.93359375 -0.05078125 C9.80821899 0.53731363 9.80821899 0.53731363 12.5625 3.3125 C13.25604695 6.49449497 13.16849062 9.57015046 13.0625 12.8125 C13.06636719 14.11380859 13.06636719 14.11380859 13.0703125 15.44140625 C12.97294875 21.74084057 12.97294875 21.74084057 11.30688477 24.0612793 C9.11438424 25.63392663 7.86548264 25.6861969 5.18359375 25.67578125 C4.34505859 25.67513672 3.50652344 25.67449219 2.64257812 25.67382812 C1.33450195 25.6496582 1.33450195 25.6496582 0 25.625 C-0.87591797 25.62822266 -1.75183594 25.63144531 -2.65429688 25.63476562 C-9.17041319 25.57958681 -9.17041319 25.57958681 -11.4375 23.3125 C-11.66455078 21.15771484 -11.66455078 21.15771484 -11.6328125 18.5234375 C-11.62636719 17.58242188 -11.61992187 16.64140625 -11.61328125 15.671875 C-11.59652344 14.68703125 -11.57976562 13.7021875 -11.5625 12.6875 C-11.55347656 11.69492187 -11.54445313 10.70234375 -11.53515625 9.6796875 C-11.51154116 7.22371866 -11.47860799 4.76822832 -11.4375 2.3125 C-7.51449401 0.15180916 -4.49884925 0.01337616 0 0 Z " fill="#676864" transform="translate(337.4375,255.6875)"/>
<path d="M0 0 C1.31871094 -0.01417969 2.63742187 -0.02835938 3.99609375 -0.04296875 C7.33542352 0.17282584 8.74296064 0.62375767 11.5625 2.1875 C11.62039006 5.64576342 11.65605821 9.10390293 11.6875 12.5625 C11.70425781 13.54734375 11.72101563 14.5321875 11.73828125 15.546875 C11.74472656 16.48789062 11.75117188 17.42890625 11.7578125 18.3984375 C11.76828613 19.26774902 11.77875977 20.13706055 11.78955078 21.03271484 C11.5625 23.1875 11.5625 23.1875 9.5625 25.1875 C6.43703844 25.63376783 3.2787016 25.51160302 0.125 25.5 C-0.74705078 25.51611328 -1.61910156 25.53222656 -2.51757812 25.54882812 C-3.77538086 25.54979492 -3.77538086 25.54979492 -5.05859375 25.55078125 C-5.8261499 25.55376221 -6.59370605 25.55674316 -7.38452148 25.55981445 C-10.0154907 25.08267947 -10.88410885 24.34542629 -12.4375 22.1875 C-12.80981445 20.2421875 -12.80981445 20.2421875 -12.80078125 18.0625 C-12.80013672 17.27359375 -12.79949219 16.4846875 -12.79882812 15.671875 C-12.78271484 14.85203125 -12.76660156 14.0321875 -12.75 13.1875 C-12.75322266 12.36765625 -12.75644531 11.5478125 -12.75976562 10.703125 C-12.70481366 4.5884705 -12.70481366 4.5884705 -10.4375 1.1875 C-6.90252138 0.00917379 -3.67856929 0.00352691 0 0 Z " fill="#6B6C68" transform="translate(306.4375,255.8125)"/>
<path d="M0 0 C1.29808594 -0.01675781 2.59617187 -0.03351563 3.93359375 -0.05078125 C9.80821899 0.53731363 9.80821899 0.53731363 12.5625 3.3125 C13.25604695 6.49449497 13.16849062 9.57015046 13.0625 12.8125 C13.06636719 14.11380859 13.06636719 14.11380859 13.0703125 15.44140625 C12.97283608 21.7481303 12.97283608 21.7481303 11.29101562 24.0612793 C9.17172867 25.59536766 8.03495259 25.68654578 5.4375 25.67578125 C4.25414062 25.67481445 4.25414062 25.67481445 3.046875 25.67382812 C2.22703125 25.65771484 1.4071875 25.64160156 0.5625 25.625 C-0.66726563 25.62983398 -0.66726563 25.62983398 -1.921875 25.63476562 C-8.0365295 25.57981366 -8.0365295 25.57981366 -11.4375 23.3125 C-11.77807617 21.15771484 -11.77807617 21.15771484 -11.73046875 18.5234375 C-11.7159668 17.11191406 -11.7159668 17.11191406 -11.70117188 15.671875 C-11.67603516 14.68703125 -11.65089844 13.7021875 -11.625 12.6875 C-11.61146484 11.69492187 -11.59792969 10.70234375 -11.58398438 9.6796875 C-11.54855743 7.22341928 -11.49916196 4.76822715 -11.4375 2.3125 C-7.51449401 0.15180916 -4.49884925 0.01337616 0 0 Z " fill="#636360" transform="translate(274.4375,255.6875)"/>
<path d="M0 0 C2.44986932 2.44986932 2.25631311 3.137078 2.265625 6.5 C2.26949219 7.8303125 2.26949219 7.8303125 2.2734375 9.1875 C2.26570313 10.115625 2.25796875 11.04375 2.25 12 C2.25773437 12.928125 2.26546875 13.85625 2.2734375 14.8125 C2.27085937 15.699375 2.26828125 16.58625 2.265625 17.5 C2.26336914 18.3146875 2.26111328 19.129375 2.25878906 19.96875 C2 22 2 22 0 24 C-2.13891602 24.24291992 -2.13891602 24.24291992 -4.75390625 24.23046875 C-6.15866211 24.22756836 -6.15866211 24.22756836 -7.59179688 24.22460938 C-9.06229492 24.20624023 -9.06229492 24.20624023 -10.5625 24.1875 C-11.54669922 24.18685547 -12.53089844 24.18621094 -13.54492188 24.18554688 C-20.85982468 24.14017532 -20.85982468 24.14017532 -22 23 C-22.25098924 19.52791193 -22.18522096 16.0425938 -22.1875 12.5625 C-22.19974609 11.58216797 -22.21199219 10.60183594 -22.22460938 9.59179688 C-22.22750977 8.18704102 -22.22750977 8.18704102 -22.23046875 6.75390625 C-22.23457764 5.89095947 -22.23868652 5.0280127 -22.24291992 4.13891602 C-22 2 -22 2 -20 0 C-17.53102648 -0.33601415 -15.16747503 -0.55747271 -12.6875 -0.6875 C-11.37136719 -0.77386719 -10.05523437 -0.86023438 -8.69921875 -0.94921875 C-5.53532453 -0.9926513 -3.01502034 -0.90615365 0 0 Z " fill="#626360" transform="translate(285,226)"/>
<path d="M0 0 C1.25780273 0.00773437 1.25780273 0.00773437 2.54101562 0.015625 C3.8490918 0.0465625 3.8490918 0.0465625 5.18359375 0.078125 C6.05951172 0.08328125 6.93542969 0.0884375 7.83789062 0.09375 C14.31182481 0.17349053 14.31182481 0.17349053 16.62109375 1.328125 C16.65003922 4.78644086 16.66787375 8.24472572 16.68359375 11.703125 C16.69197266 12.68796875 16.70035156 13.6728125 16.70898438 14.6875 C16.71381836 16.09902344 16.71381836 16.09902344 16.71875 17.5390625 C16.72660522 18.84302979 16.72660522 18.84302979 16.73461914 20.17333984 C16.62109375 22.328125 16.62109375 22.328125 15.62109375 24.328125 C11.44538905 25.77221818 7.33683167 25.31846787 2.99609375 25.078125 C1.83207031 25.03751953 1.83207031 25.03751953 0.64453125 24.99609375 C-1.60546875 24.875 -1.60546875 24.875 -5.37890625 24.328125 C-8.09272708 20.25739375 -7.71018266 17.10484388 -7.69140625 12.328125 C-7.70751953 11.50828125 -7.72363281 10.6884375 -7.74023438 9.84375 C-7.74087891 9.05484375 -7.74152344 8.2659375 -7.7421875 7.453125 C-7.74516846 6.73382813 -7.74814941 6.01453125 -7.7512207 5.2734375 C-6.9033099 0.84317305 -4.15034948 -0.05053433 0 0 Z " fill="#696966" transform="translate(301.37890625,286.671875)"/>
<path d="M0 0 C2 2 2 2 2.24291992 4.03125 C2.23675659 5.25328125 2.23675659 5.25328125 2.23046875 6.5 C2.22853516 7.386875 2.22660156 8.27375 2.22460938 9.1875 C2.20624023 10.5796875 2.20624023 10.5796875 2.1875 12 C2.18685547 12.928125 2.18621094 13.85625 2.18554688 14.8125 C2.14037187 21.71925626 2.14037187 21.71925626 1 24 C-2.27066566 24.08706892 -5.54103365 24.14041241 -8.8125 24.1875 C-9.74126953 24.21263672 -10.67003906 24.23777344 -11.62695312 24.26367188 C-12.9659668 24.27817383 -12.9659668 24.27817383 -14.33203125 24.29296875 C-15.15421143 24.3086792 -15.9763916 24.32438965 -16.82348633 24.34057617 C-19 24 -19 24 -20.7668457 22.73950195 C-22.26935888 20.6200392 -22.38629455 19.45624453 -22.3984375 16.875 C-22.40230469 16.08609375 -22.40617187 15.2971875 -22.41015625 14.484375 C-22.39855469 13.66453125 -22.38695312 12.8446875 -22.375 12 C-22.38660156 11.18015625 -22.39820313 10.3603125 -22.41015625 9.515625 C-22.40435547 8.33226562 -22.40435547 8.33226562 -22.3984375 7.125 C-22.39505371 6.40570313 -22.39166992 5.68640625 -22.38818359 4.9453125 C-21.88376992 2.41753381 -21.03466757 1.54843539 -19 0 C-12.70934852 -1.34799675 -6.3242805 -1.22439774 0 0 Z " fill="#656563" transform="translate(316,226)"/>
<path d="M0 0 C0.87591797 0.00322266 1.75183594 0.00644531 2.65429688 0.00976562 C3.52634766 -0.00634766 4.39839844 -0.02246094 5.296875 -0.0390625 C6.55467773 -0.0400293 6.55467773 -0.0400293 7.83789062 -0.04101562 C8.60544678 -0.04399658 9.37300293 -0.04697754 10.16381836 -0.05004883 C12.80220519 0.42843136 13.66717885 1.14989259 15.21679688 3.32226562 C15.58911133 5.37524414 15.58911133 5.37524414 15.58007812 7.70117188 C15.57943359 8.53970703 15.57878906 9.37824219 15.578125 10.2421875 C15.56201172 11.11423828 15.54589844 11.98628906 15.52929688 12.88476562 C15.53413086 14.19864258 15.53413086 14.19864258 15.5390625 15.5390625 C15.48388369 22.05517881 15.48388369 22.05517881 13.21679688 24.32226562 C11.07788086 24.56518555 11.07788086 24.56518555 8.46289062 24.55273438 C7.05813477 24.54983398 7.05813477 24.54983398 5.625 24.546875 C4.15450195 24.52850586 4.15450195 24.52850586 2.65429688 24.50976562 C1.67009766 24.50912109 0.68589844 24.50847656 -0.328125 24.5078125 C-7.6430278 24.46244095 -7.6430278 24.46244095 -8.78320312 23.32226562 C-9.03419236 19.85017756 -8.96842409 16.36485943 -8.97070312 12.88476562 C-8.98294922 11.90443359 -8.99519531 10.92410156 -9.0078125 9.9140625 C-9.01071289 8.50930664 -9.01071289 8.50930664 -9.01367188 7.07617188 C-9.01778076 6.2132251 -9.02188965 5.35027832 -9.02612305 4.46118164 C-8.42632906 -0.8200195 -4.18876035 0.03547064 0 0 Z " fill="#60605D" transform="translate(334.783203125,286.677734375)"/>
<path d="M0 0 C0.886875 -0.00257813 1.77375 -0.00515625 2.6875 -0.0078125 C4.0796875 0.00378906 4.0796875 0.00378906 5.5 0.015625 C6.428125 0.00789062 7.35625 0.00015625 8.3125 -0.0078125 C9.6428125 -0.00394531 9.6428125 -0.00394531 11 0 C11.8146875 0.00225586 12.629375 0.00451172 13.46875 0.00683594 C15.5 0.265625 15.5 0.265625 17.5 2.265625 C17.94804715 5.5791826 17.82409862 8.92522363 17.8125 12.265625 C17.82861328 13.19375 17.84472656 14.121875 17.86132812 15.078125 C17.86197266 15.965 17.86261719 16.851875 17.86328125 17.765625 C17.86626221 18.5803125 17.86924316 19.395 17.87231445 20.234375 C17.74945068 20.9046875 17.62658691 21.575 17.5 22.265625 C14.38783261 24.34040326 13.65939492 24.52085088 10.12109375 24.53125 C9.28255859 24.53382813 8.44402344 24.53640625 7.58007812 24.5390625 C6.70802734 24.53132813 5.83597656 24.52359375 4.9375 24.515625 C3.62362305 24.52722656 3.62362305 24.52722656 2.28320312 24.5390625 C1.44595703 24.53648437 0.60871094 24.53390625 -0.25390625 24.53125 C-1.02033447 24.52899414 -1.7867627 24.52673828 -2.57641602 24.52441406 C-4.5 24.265625 -4.5 24.265625 -6.5 22.265625 C-6.75878906 20.234375 -6.75878906 20.234375 -6.765625 17.765625 C-6.76820313 16.87875 -6.77078125 15.991875 -6.7734375 15.078125 C-6.76183594 13.6859375 -6.76183594 13.6859375 -6.75 12.265625 C-6.75773437 11.3375 -6.76546875 10.409375 -6.7734375 9.453125 C-6.77085937 8.56625 -6.76828125 7.679375 -6.765625 6.765625 C-6.76336914 5.9509375 -6.76111328 5.13625 -6.75878906 4.296875 C-6.21708282 0.04499205 -3.6638033 0.01014502 0 0 Z " fill="#62625F" transform="translate(332.5,225.734375)"/>
<path d="M0 0 C2.44986932 2.44986932 2.25631311 3.137078 2.265625 6.5 C2.26949219 7.8303125 2.26949219 7.8303125 2.2734375 9.1875 C2.26570313 10.115625 2.25796875 11.04375 2.25 12 C2.25773437 12.928125 2.26546875 13.85625 2.2734375 14.8125 C2.27085937 15.699375 2.26828125 16.58625 2.265625 17.5 C2.26336914 18.3146875 2.26111328 19.129375 2.25878906 19.96875 C2 22 2 22 0 24 C-1.93945312 24.24291992 -1.93945312 24.24291992 -4.28125 24.23046875 C-5.54388672 24.22756836 -5.54388672 24.22756836 -6.83203125 24.22460938 C-8.15267578 24.20624023 -8.15267578 24.20624023 -9.5 24.1875 C-10.38042969 24.18685547 -11.26085937 24.18621094 -12.16796875 24.18554688 C-18.71919885 24.14040057 -18.71919885 24.14040057 -21 23 C-21 15.74 -21 8.48 -21 1 C-15.10415564 -1.94792218 -6.3196599 -1.51122302 0 0 Z " fill="#626360" transform="translate(379,226)"/>
<path d="M0 0 C2.4375 0.8125 2.4375 0.8125 4.4375 2.8125 C4.66455078 4.87548828 4.66455078 4.87548828 4.6328125 7.3828125 C4.62314453 8.72666016 4.62314453 8.72666016 4.61328125 10.09765625 C4.59652344 11.03480469 4.57976562 11.97195313 4.5625 12.9375 C4.55347656 13.88238281 4.54445313 14.82726562 4.53515625 15.80078125 C4.51154522 18.13827292 4.47861516 20.47526123 4.4375 22.8125 C6.00951172 22.77769531 6.00951172 22.77769531 7.61328125 22.7421875 C8.99218037 22.72342697 10.3710872 22.70522707 11.75 22.6875 C12.44029297 22.67074219 13.13058594 22.65398437 13.84179688 22.63671875 C17.60885396 22.60032206 19.22181704 22.66871136 22.4375 24.8125 C22.75 27.8125 22.75 27.8125 22.4375 30.8125 C19.39646434 33.85353566 16.38908914 33.10580847 12.23242188 33.13476562 C11.16572266 33.13154297 10.09902344 33.12832031 9 33.125 C7.93716797 33.14111328 6.87433594 33.15722656 5.77929688 33.17382812 C4.25079102 33.17479492 4.25079102 33.17479492 2.69140625 33.17578125 C1.75627197 33.17876221 0.8211377 33.18174316 -0.14233398 33.18481445 C-2.5625 32.8125 -2.5625 32.8125 -4.3659668 31.6706543 C-6.09263436 28.9892287 -5.95114718 26.89081415 -5.9609375 23.71875 C-5.96480469 22.52378906 -5.96867187 21.32882812 -5.97265625 20.09765625 C-5.96105469 18.84855469 -5.94945312 17.59945313 -5.9375 16.3125 C-5.94910156 15.06339844 -5.96070313 13.81429688 -5.97265625 12.52734375 C-5.96878906 11.33238281 -5.96492188 10.13742187 -5.9609375 8.90625 C-5.95755371 7.80990234 -5.95416992 6.71355469 -5.95068359 5.58398438 C-5.5625 2.8125 -5.5625 2.8125 -4.19775391 0.91992188 C-2.5625 -0.1875 -2.5625 -0.1875 0 0 Z " fill="#6D6D6A" transform="translate(395.5625,270.1875)"/>
<path d="M0 0 C2.12508244 3.18762365 2.5020163 5.26512223 3 9 C3.66 8.67 4.32 8.34 5 8 C7.04055005 7.92934383 9.08334257 7.91578024 11.125 7.9375 C12.22070312 7.94652344 13.31640625 7.95554687 14.4453125 7.96484375 C15.28835937 7.97644531 16.13140625 7.98804688 17 8 C17.04898438 8.69867188 17.09796875 9.39734375 17.1484375 10.1171875 C17.22320312 11.02726562 17.29796875 11.93734375 17.375 12.875 C17.44460937 13.77992188 17.51421875 14.68484375 17.5859375 15.6171875 C17.79568132 18.17941903 17.79568132 18.17941903 20 20 C22.58354218 20.16687448 22.58354218 20.16687448 25 20 C25 21.32 25 22.64 25 24 C22.69 25.32 20.38 26.64 18 28 C18.99 28.66 19.98 29.32 21 30 C17.26693207 30.95993175 14.72586394 30.93146599 11 30 C10.154375 29.855625 9.30875 29.71125 8.4375 29.5625 C4.73281742 28.70757325 2.63170437 27.57755828 -0.1875 25 C-4.00359709 18.68370136 -3.66281363 10.07057274 -2 3 C-1.34 2.01 -0.68 1.02 0 0 Z " fill="#C49E53" transform="translate(218,302)"/>
<path d="M0 0 C2.875 1.75 2.875 1.75 3.875 4.75 C4.15998771 8.89116627 4.15258799 13.03762603 4.1875 17.1875 C4.21650391 18.33283203 4.24550781 19.47816406 4.27539062 20.65820312 C4.28376953 21.75970703 4.29214844 22.86121094 4.30078125 23.99609375 C4.31536377 25.00341553 4.32994629 26.0107373 4.3449707 27.04858398 C3.74754674 30.48260796 2.60491147 31.64691832 -0.125 33.75 C-3.1875 34.1875 -3.1875 34.1875 -6.125 33.75 C-8.16167615 32.20493534 -8.98573078 31.02853844 -10.125 28.75 C-10.42154768 24.63105496 -10.40302033 20.50336582 -10.4375 16.375 C-10.46650391 15.22515625 -10.49550781 14.0753125 -10.52539062 12.890625 C-10.53376953 11.78460938 -10.54214844 10.67859375 -10.55078125 9.5390625 C-10.56536377 8.52537598 -10.57994629 7.51168945 -10.5949707 6.46728516 C-9.99889276 3.02087089 -8.83981063 1.88663664 -6.125 -0.25 C-3.125 -1.25 -3.125 -1.25 0 0 Z " fill="#C5A056" transform="translate(372.125,157.25)"/>
<path d="M0 0 C3.4375 0.5625 3.4375 0.5625 5.12524414 2.2265625 C7.7282265 6.86011324 6.90593504 12.37666191 6.875 17.5625 C6.89498047 18.75101563 6.91496094 19.93953125 6.93554688 21.1640625 C6.93490234 22.30617187 6.93425781 23.44828125 6.93359375 24.625 C6.93544678 25.66785156 6.9372998 26.71070313 6.93920898 27.78515625 C6.31565791 31.23698937 5.16147232 32.42262087 2.4375 34.5625 C0.3671875 34.875 0.3671875 34.875 -1.6875 34.5625 C-2.37070312 34.48 -3.05390625 34.3975 -3.7578125 34.3125 C-5.5625 33.5625 -5.5625 33.5625 -6.65429688 31.85717773 C-8.43978083 27.34595093 -7.93182775 22.41521902 -7.9375 17.625 C-7.96199219 16.54025391 -7.98648437 15.45550781 -8.01171875 14.33789062 C-8.04092677 6.41764894 -8.04092677 6.41764894 -5.76171875 2.34375 C-3.5625 0.5625 -3.5625 0.5625 0 0 Z " fill="#C29E55" transform="translate(275.5625,156.4375)"/>
<path d="M0 0 C0.99 0.66 1.98 1.32 3 2 C3.99 2 4.98 2 6 2 C5.74723947 17.0737188 5.74723947 17.0737188 0 23 C-0.66 23 -1.32 23 -2 23 C-2 23.66 -2 24.32 -2 25 C-6.29385993 28.4887612 -9.71870895 28.26854022 -15 28 C-14.62875 27.29875 -14.2575 26.5975 -13.875 25.875 C-12.7570096 22.20160296 -13.4344278 20.44425884 -15 17 C-15.66 16.67 -16.32 16.34 -17 16 C-17 12.7 -17 9.4 -17 6 C-12.71 6 -8.42 6 -4 6 C-3.34 4.68 -2.68 3.36 -2 2 C-1.34 2 -0.68 2 0 2 C0 1.34 0 0.68 0 0 Z " fill="#C39E52" transform="translate(260,304)"/>
<path d="M0 0 C4.74937775 5.39702017 5.33003393 11.63815097 5.203125 18.5546875 C4.92288096 21.92839455 4.11032612 24.8078124 3 28 C2.67 28 2.34 28 2 28 C2 24.04 2 20.08 2 16 C1.34 16.66 0.68 17.32 0 18 C-0.66 17.01 -1.32 16.02 -2 15 C-5.0109362 17.0072908 -5.63016497 17.83884224 -7 21 C-8.60407328 21.02708567 -10.2082785 21.04643483 -11.8125 21.0625 C-13.15248047 21.07990234 -13.15248047 21.07990234 -14.51953125 21.09765625 C-17 21 -17 21 -20 20 C-19.67 23.3 -19.34 26.6 -19 30 C-18.34 30 -17.68 30 -17 30 C-15.8125 33.1875 -15.8125 33.1875 -15 37 C-16.375 39.9375 -16.375 39.9375 -18 42 C-16.35 42 -14.7 42 -13 42 C-18.37522713 45.58348475 -22.63136992 45.38516328 -29 45 C-32.6875 44 -32.6875 44 -35 43 C-34.67 42.34 -34.34 41.68 -34 41 C-31.03 41.33 -28.06 41.66 -25 42 C-25.99 41.34 -26.98 40.68 -28 40 C-26.25 38 -26.25 38 -24 36 C-22.68 36 -21.36 36 -20 36 C-20.495 34.515 -20.495 34.515 -21 33 C-21.66 32.67 -22.32 32.34 -23 32 C-22.67 31.67 -22.34 31.34 -22 31 C-21.76572222 28.98405418 -21.58663876 26.961526 -21.4375 24.9375 C-21.293125 22.978125 -21.14875 21.01875 -21 19 C-17.04 18.67 -13.08 18.34 -9 18 C-8.67 16.35 -8.34 14.7 -8 13 C-12.29 13 -16.58 13 -21 13 C-21 9.37 -21 5.74 -21 2 C-20.67 2 -20.34 2 -20 2 C-20 5.3 -20 8.6 -20 12 C-18.02 11.67 -16.04 11.34 -14 11 C-14 10.67 -14 10.34 -14 10 C-11.69 10.33 -9.38 10.66 -7 11 C-6.731875 10.443125 -6.46375 9.88625 -6.1875 9.3125 C-4.89100504 6.78774666 -3.57523677 4.36285516 -2 2 C-1.34 2 -0.68 2 0 2 C0 1.34 0 0.68 0 0 Z " fill="#CEB174" transform="translate(263,290)"/>
<path d="M0 0 C4.94677637 3.76385159 7.26799874 6.21012253 8.484375 12.5078125 C9.15042294 19.07034365 9.34098427 25.7291281 7 32 C4.96484375 33.67578125 4.96484375 33.67578125 3 35 C2.20376178 37.09415804 2.20376178 37.09415804 2 39 C1.34 39 0.68 39 0 39 C0 37.68 0 36.36 0 35 C-0.66 34.67 -1.32 34.34 -2 34 C-1.814375 32.72125 -1.62875 31.4425 -1.4375 30.125 C-0.80652854 24.1734043 -1.24134786 18.3649522 -1.76928711 12.42236328 C-2.12476294 7.77445375 -1.84201455 4.39842258 0 0 Z " fill="#C2A25C" transform="translate(430,276)"/>
<path d="M0 0 C12.52619065 -0.13911622 25.05219704 -0.24568063 37.57900333 -0.31087303 C43.39596435 -0.34216482 49.21239624 -0.38459967 55.02905273 -0.45263672 C60.64415615 -0.51790401 66.25875113 -0.55372224 71.87420464 -0.56926346 C74.01484619 -0.58033642 76.15546041 -0.60195982 78.29588509 -0.63438034 C81.29820664 -0.67804077 84.29843665 -0.68392998 87.30102539 -0.68115234 C88.62380745 -0.71350983 88.62380745 -0.71350983 89.97331238 -0.746521 C95.76889627 -0.68863513 98.65841583 0.64461666 102.80972958 4.71144676 C103.20251882 5.13666933 103.59530806 5.5618919 104 6 C103.67 6.99 103.34 7.98 103 9 C72.64 9 42.28 9 11 9 C11 8.67 11 8.34 11 8 C54.56 7.505 54.56 7.505 99 7 C98.01 6.01 97.02 5.02 96 4 C96 3.01 96 2.02 96 1 C64.32 1 32.64 1 0 1 C0 0.67 0 0.34 0 0 Z " fill="#B7787A" transform="translate(263,326)"/>
<path d="M0 0 C0.33 0 0.66 0 1 0 C1.75285822 6.19660223 2.0688272 11.86440822 1.19140625 18.05078125 C0.94932784 20.51602875 1.31197678 22.63014223 2 25 C2.66 25 3.32 25 4 25 C4.33 23.02 4.66 21.04 5 19 C5.99 19 6.98 19 8 19 C5.8455746 29.34124192 -1.1314089 35.42535499 -9 42 C-9.495 40.515 -9.495 40.515 -10 39 C-10.66 38.67 -11.32 38.34 -12 38 C-10.68 37.01 -9.36 36.02 -8 35 C-8 35.66 -8 36.32 -8 37 C-7.01 37 -6.02 37 -5 37 C-5.2784375 36.13375 -5.2784375 36.13375 -5.5625 35.25 C-6 33 -6 33 -5.375 30.9375 C-5.25125 30.298125 -5.1275 29.65875 -5 29 C-6.43622259 27.37096734 -6.43622259 27.37096734 -8 26 C-7.59007812 25.46375 -7.18015625 24.9275 -6.7578125 24.375 C-1.39724433 16.57780994 -0.66121503 9.18860882 0 0 Z " fill="#C8A766" transform="translate(428,290)"/>
<path d="M0 0 C-0.66 1.32 -1.32 2.64 -2 4 C-2.66 4 -3.32 4 -4 4 C-4 4.66 -4 5.32 -4 6 C-6.51346831 7.25673416 -8.57428138 7.28975839 -11.375 7.5 C-14.69872256 7.75084699 -17.79013416 8.08724194 -21 9 C-21 9.66 -21 10.32 -21 11 C-23.875 11.125 -23.875 11.125 -27 11 C-27.66 10.34 -28.32 9.68 -29 9 C-28.625 6.875 -28.625 6.875 -28 5 C-26.68 5 -25.36 5 -24 5 C-24 4.34 -24 3.68 -24 3 C-20.47320901 0.64880601 -18.97120515 0.78556548 -14.8125 0.875 C-13.72582031 0.89304688 -12.63914062 0.91109375 -11.51953125 0.9296875 C-10.27236328 0.96449219 -10.27236328 0.96449219 -9 1 C-8.67 2.32 -8.34 3.64 -8 5 C-7.236875 4.175 -6.47375 3.35 -5.6875 2.5 C-3 0 -3 0 0 0 Z " fill="#C49D4D" transform="translate(404,254)"/>
<path d="M0 0 C2.39223697 2.39223697 2.6758631 3.67759676 3 7 C2.01 8.485 2.01 8.485 1 10 C-1.08756746 25.08562899 -0.10076891 40.80869923 0 56 C1.485 55.505 1.485 55.505 3 55 C2.98839844 55.75925781 2.97679688 56.51851562 2.96484375 57.30078125 C2.95582031 58.29464844 2.94679688 59.28851563 2.9375 60.3125 C2.92589844 61.29863281 2.91429688 62.28476563 2.90234375 63.30078125 C2.87670138 66.09963849 2.87670138 66.09963849 4 69 C3.34 69.99 2.68 70.98 2 72 C-1.19599667 60.25657036 -2.77339978 49.15827406 -3 37 C-3.02046387 36.24009766 -3.04092773 35.48019531 -3.06201172 34.69726562 C-3.36031017 23.0512998 -3.09427253 11.31778963 0 0 Z " fill="#C5A86F" transform="translate(121,169)"/>
<path d="M0 0 C0.33 0 0.66 0 1 0 C1.09864796 5.32698981 0.80280385 10.41776768 0.12109375 15.703125 C-0.0020521 18.03892373 0.31183987 19.77749765 1 22 C1.86625 21.5359375 1.86625 21.5359375 2.75 21.0625 C5 20 5 20 7.0625 19.625 C9.69976283 18.77427005 10.53040849 17.27786684 12 15 C11.21824485 19.84688192 9.60155722 24.3766367 8 29 C4.50155614 28.36610765 2.15913124 26.94822306 -0.75 24.9375 C-1.54921875 24.38964844 -2.3484375 23.84179688 -3.171875 23.27734375 C-3.77515625 22.85582031 -4.3784375 22.43429688 -5 22 C-3.60695059 14.59225491 -1.88100377 7.29829463 0 0 Z " fill="#CBB079" transform="translate(421,230)"/>
<path d="M0 0 C0.66 0 1.32 0 2 0 C2 19.47 2 38.94 2 59 C-0.31 58.67 -2.62 58.34 -5 58 C-5 57.67 -5 57.34 -5 57 C-3.35 57 -1.7 57 0 57 C0 38.19 0 19.38 0 0 Z " fill="#925E60" transform="translate(407,190)"/>
<path d="M0 0 C1.32 0 2.64 0 4 0 C5.1875 3.1875 5.1875 3.1875 6 7 C4.625 9.9375 4.625 9.9375 3 12 C4.65 12 6.3 12 8 12 C2.62477287 15.58348475 -1.63136992 15.38516328 -8 15 C-11.6875 14 -11.6875 14 -14 13 C-13.67 12.34 -13.34 11.68 -13 11 C-10.03 11.33 -7.06 11.66 -4 12 C-4.99 11.34 -5.98 10.68 -7 10 C-5.25 8 -5.25 8 -3 6 C-1.68 6 -0.36 6 1 6 C0.67 5.01 0.34 4.02 0 3 C-0.66 2.67 -1.32 2.34 -2 2 C-1.34 1.34 -0.68 0.68 0 0 Z " fill="#CAAA69" transform="translate(242,320)"/>
<path d="M0 0 C1.00708008 0.03077637 2.01416016 0.06155273 3.05175781 0.09326172 C4.01307617 0.13209473 4.97439453 0.17092773 5.96484375 0.2109375 C6.82585693 0.2423584 7.68687012 0.2737793 8.57397461 0.30615234 C11.32808135 0.65902818 13.53563948 1.49660901 16.0625 2.625 C16.0625 2.955 16.0625 3.285 16.0625 3.625 C14.886875 3.46515625 13.71125 3.3053125 12.5 3.140625 C5.70351051 2.3919492 -1.10674258 2.38286119 -7.9375 2.375 C-8.62492279 2.37366058 -9.31234558 2.37232117 -10.02059937 2.37094116 C-23.56182416 2.3766605 -36.18419206 3.59769195 -49.0546875 8.171875 C-50.9375 8.625 -50.9375 8.625 -53.9375 7.625 C-53.2775 7.625 -52.6175 7.625 -51.9375 7.625 C-51.9375 6.965 -51.9375 6.305 -51.9375 5.625 C-47.50084961 3.40667481 -44.97173788 2.625 -39.9375 2.625 C-39.6075 2.295 -39.2775 1.965 -38.9375 1.625 C-36.98333843 1.41500055 -35.02349701 1.25667366 -33.0625 1.125 C-10.66859775 -0.38591389 -10.66859775 -0.38591389 0 0 Z " fill="#CAB280" transform="translate(287.9375,55.375)"/>
<path d="M0 0 C1.98 0 3.96 0 6 0 C6 0.66 6 1.32 6 2 C4.35 2.33 2.7 2.66 1 3 C2.30324219 3.14695312 2.30324219 3.14695312 3.6328125 3.296875 C15.07908612 4.78207381 15.07908612 4.78207381 20 9 C19.34 9.66 18.68 10.32 18 11 C15.9375 10.8125 15.9375 10.8125 14 10 C13.505 8.515 13.505 8.515 13 7 C6.07 7 -0.86 7 -8 7 C-8.33 7.99 -8.66 8.98 -9 10 C-9.99 10 -10.98 10 -12 10 C-14.68767578 12.43750025 -14.68767578 12.43750025 -17 15 C-17.99 14.67 -18.98 14.34 -20 14 C-10.04640858 5.13642724 -10.04640858 5.13642724 -5.1875 4.8125 C-4.465625 4.874375 -3.74375 4.93625 -3 5 C-3 4.01 -3 3.02 -3 2 C-2.01 2 -1.02 2 0 2 C0 1.34 0 0.68 0 0 Z " fill="#CCB07F" transform="translate(236,273)"/>
<path d="M0 0 C-1.10868317 2.21736634 -2.49440461 4.03617993 -4 6 C-2.68 6 -1.36 6 0 6 C0 6.66 0 7.32 0 8 C-5.61 8 -11.22 8 -17 8 C-17.33 7.01 -17.66 6.02 -18 5 C-12.07748242 -0.26446007 -7.78812551 -0.63375343 0 0 Z " fill="#702225" transform="translate(274,327)"/>
<path d="M0 0 C0.12375 0.556875 0.2475 1.11375 0.375 1.6875 C0.9677119 4.07752696 0.9677119 4.07752696 2.0625 6.5625 C3.19141755 9.49768563 3 11.87299991 3 15 C2 16 2 16 -1.4375 16.1875 C-5 16 -5 16 -7 14 C-6.66297118 6.92239468 -6.66297118 6.92239468 -4.5625 4 C-3 3 -3 3 -1 3 C-0.67 2.01 -0.34 1.02 0 0 Z " fill="#7B363A" transform="translate(125,344)"/>
<path d="M0 0 C6.65892196 9.98838294 5.44473863 25.56540442 5.33618164 37.11987305 C5.31237283 39.82695938 5.31567647 42.5330681 5.32226562 45.24023438 C5.30692751 54.0019045 5.15062285 62.44551906 3 71 C2.67 71 2.34 71 2 71 C1.97307516 68.70839681 1.95363876 66.41670454 1.9375 64.125 C1.92589844 62.84882813 1.91429687 61.57265625 1.90234375 60.2578125 C2 57 2 57 3 55 C3.08658569 52.44637396 3.11562516 49.9204558 3.09765625 47.3671875 C3.0962413 46.61535187 3.09482635 45.86351624 3.09336853 45.08889771 C3.08776465 42.6842249 3.07521157 40.27964473 3.0625 37.875 C3.0574855 36.24609509 3.0529225 34.61718873 3.04882812 32.98828125 C3.03779397 28.99215173 3.02052679 24.99609158 3 21 C2.67 21 2.34 21 2 21 C1.34 14.07 0.68 7.14 0 0 Z " fill="#CCB488" transform="translate(434,161)"/>
<path d="M0 0 C-0.99 0.33 -1.98 0.66 -3 1 C-3 1.66 -3 2.32 -3 3 C-4.65 3 -6.3 3 -8 3 C-8.19980469 3.639375 -8.39960938 4.27875 -8.60546875 4.9375 C-10 7 -10 7 -12.86328125 7.6875 C-14.00152344 7.790625 -15.13976562 7.89375 -16.3125 8 C-21.64966188 8.48685627 -23.92557478 9.59805273 -28 13 C-30.67578125 13.828125 -30.67578125 13.828125 -33.3125 14.25 C-34.19550781 14.39953125 -35.07851562 14.5490625 -35.98828125 14.703125 C-36.65214844 14.80109375 -37.31601563 14.8990625 -38 15 C-36.34706294 11.69412588 -32.79230718 10.75482482 -29.5625 9.25 C-28.81347412 8.89945557 -28.06444824 8.54891113 -27.29272461 8.18774414 C-21.65365355 5.61517736 -15.93531229 3.41518311 -10.0625 1.4375 C-9.287854 1.17420898 -8.51320801 0.91091797 -7.71508789 0.63964844 C-2.25659122 -1.12829561 -2.25659122 -1.12829561 0 0 Z " fill="#C8A767" transform="translate(237,48)"/>
<path d="M0 0 C0.99 0.33 1.98 0.66 3 1 C2.01 1.33 1.02 1.66 0 2 C0 2.66 0 3.32 0 4 C-0.639375 4.12375 -1.27875 4.2475 -1.9375 4.375 C-2.618125 4.58125 -3.29875 4.7875 -4 5 C-4.33 5.66 -4.66 6.32 -5 7 C-4.34 7.33 -3.68 7.66 -3 8 C-3 8.33 -3 8.66 -3 9 C-0.525 9.495 -0.525 9.495 2 10 C-0.61514317 12.12038635 -3.19637616 14.13091744 -6 16 C-8.125 11.375 -8.125 11.375 -7 8 C-7.66 7.67 -8.32 7.34 -9 7 C-9 7.66 -9 8.32 -9 9 C-9.99 9.33 -10.98 9.66 -12 10 C-12.28875 10.66 -12.5775 11.32 -12.875 12 C-14 14 -14 14 -16.625 14.75 C-17.40875 14.8325 -18.1925 14.915 -19 15 C-14.67733837 7.81380303 -9.49174315 4.5377676 -2 1 C-1.34 0.67 -0.68 0.34 0 0 Z " fill="#C8A65F" transform="translate(380,255)"/>
<path d="M0 0 C0.66 0 1.32 0 2 0 C2 1.65 2 3.3 2 5 C2.66 5 3.32 5 4 5 C5.60725635 8.21451269 5.05748185 11.43612536 5 15 C5.66 15 6.32 15 7 15 C8.125 21.625 8.125 21.625 7 25 C7.66 25 8.32 25 9 25 C9.22512171 29.12426536 9.42725588 33.24933849 9.625 37.375 C9.68945312 38.550625 9.75390625 39.72625 9.8203125 40.9375 C9.871875 42.05898437 9.9234375 43.18046875 9.9765625 44.3359375 C10.02893066 45.37282715 10.08129883 46.4097168 10.13525391 47.47802734 C10 50 10 50 8 52 C7.96261719 50.88625 7.92523438 49.7725 7.88671875 48.625 C7.29323156 33.89513567 4.78966489 20.1800549 0.76953125 6.01171875 C0 3 0 3 0 0 Z " fill="#C9AF7F" transform="translate(416,151)"/>
<path d="M0 0 C0.99 0.33 1.98 0.66 3 1 C3.09765625 7.15234375 3.09765625 7.15234375 3 9 C2.67 9.33 2.34 9.66 2 10 C2.061875 11.2065625 2.061875 11.2065625 2.125 12.4375 C2.08375 13.283125 2.0425 14.12875 2 15 C1.01 15.66 0.02 16.32 -1 17 C-1.72382467 19.05925139 -1.72382467 19.05925139 -2 21 C-2.66 21 -3.32 21 -4 21 C-4 19.68 -4 18.36 -4 17 C-4.66 16.67 -5.32 16.34 -6 16 C-5.94004678 14.20739868 -5.8512759 12.41574205 -5.75 10.625 C-5.70359375 9.62726563 -5.6571875 8.62953125 -5.609375 7.6015625 C-5.30773437 6.31378906 -5.30773437 6.31378906 -5 5 C-3.015625 3.8359375 -3.015625 3.8359375 -1 3 C-0.67 2.01 -0.34 1.02 0 0 Z M-3 9 C-4.35618499 10.12534105 -4.35618499 10.12534105 -4.0625 13.0625 C-4.041875 14.031875 -4.02125 15.00125 -4 16 C-2.68 14.68 -1.36 13.36 0 12 C-0.33 11.01 -0.66 10.02 -1 9 C-1.66 9 -2.32 9 -3 9 Z " fill="#C09C4D" transform="translate(434,294)"/>
<path d="M0 0 C0.33 0.66 0.66 1.32 1 2 C0.195625 3.7325 0.195625 3.7325 -0.625 5.5 C-7.21724579 19.84782908 -9.242666 35.45755162 -11 51 C-11.33 51 -11.66 51 -12 51 C-12.02690844 48.37493198 -12.04679404 45.75013827 -12.0625 43.125 C-12.07087891 42.37863281 -12.07925781 41.63226563 -12.08789062 40.86328125 C-12.11328125 35.2265625 -12.11328125 35.2265625 -11 33 C-10.77532169 31.46331135 -10.59203195 29.92031946 -10.4375 28.375 C-10.35371094 27.55773437 -10.26992187 26.74046875 -10.18359375 25.8984375 C-10.12300781 25.27195313 -10.06242188 24.64546875 -10 24 C-9.34 24 -8.68 24 -8 24 C-8.061875 23.175 -8.12375 22.35 -8.1875 21.5 C-7.98948022 17.80363071 -7.10958214 15.32718075 -5.71875 11.953125 C-4.85751972 9.83083837 -4.85751972 9.83083837 -4.5625 6.75 C-3.875464 3.39115735 -2.58550557 2.16848854 0 0 Z " fill="#CBB483" transform="translate(145,142)"/>
<path d="M0 0 C0 1.32 0 2.64 0 4 C0.33 3.34 0.66 2.68 1 2 C1.99 2 2.98 2 4 2 C5.6875 4 5.6875 4 7 6 C6.4740625 6.928125 6.4740625 6.928125 5.9375 7.875 C5.628125 8.57625 5.31875 9.2775 5 10 C5.33 10.66 5.66 11.32 6 12 C4.68 11.67 3.36 11.34 2 11 C2 10.34 2 9.68 2 9 C0.35 8.67 -1.3 8.34 -3 8 C-3 7.34 -3 6.68 -3 6 C-3.66 6 -4.32 6 -5 6 C-5.33 5.34 -5.66 4.68 -6 4 C-8.02463255 3.34786708 -8.02463255 3.34786708 -10 3 C-9 1 -9 1 -6.6875 -0.1875 C-3.88010429 -1.03624754 -2.698065 -0.99928333 0 0 Z " fill="#C39E4F" transform="translate(416,259)"/>
<path d="M0 0 C0.66 0 1.32 0 2 0 C2.66 0.721875 3.32 1.44375 4 2.1875 C9.46677545 7.89832792 17.32871786 10.85347296 25.11328125 11.09765625 C26.16902344 11.08605469 27.22476562 11.07445312 28.3125 11.0625 C29.38113281 11.05347656 30.44976562 11.04445313 31.55078125 11.03515625 C32.76314453 11.01775391 32.76314453 11.01775391 34 11 C28.43891204 14.50194456 21.30159055 13.53920826 15 13 C10.04738815 11.65230535 6.87513243 10.31269864 4 6 C1.41619823 5.74969023 1.41619823 5.74969023 -1 6 C-0.67 4.02 -0.34 2.04 0 0 Z M-3 6 C-2.34 6.33 -1.68 6.66 -1 7 C-1.99 8.32 -2.98 9.64 -4 11 C-4.66 9.68 -5.32 8.36 -6 7 C-5.01 6.67 -4.02 6.34 -3 6 Z " fill="#CAAF77" transform="translate(370,316)"/>
<path d="M0 0 C0.99 0.66 1.98 1.32 3 2 C3 2.99 3 3.98 3 5 C3.66 5 4.32 5 5 5 C6.06775224 6.96466413 7.06553465 8.96855359 8 11 C7.67 11.66 7.34 12.32 7 13 C5.35 11.68 3.7 10.36 2 9 C1.1558062 12.97977076 0.55312735 16.97007218 0 21 C-0.33 21 -0.66 21 -1 21 C-2.33333333 17 -3.66666667 13 -5 9 C-4.01 9 -3.02 9 -2 9 C-1.34 6.03 -0.68 3.06 0 0 Z " fill="#CAAE71" transform="translate(428,268)"/>
<path d="M0 0 C1.32 0.66 2.64 1.32 4 2 C3.67 4.64 3.34 7.28 3 10 C2.38125 9.79375 1.7625 9.5875 1.125 9.375 C0.42375 9.25125 -0.2775 9.1275 -1 9 C-1.66 9.66 -2.32 10.32 -3 11 C-2.6814823 13.10820797 -2.6814823 13.10820797 -2 15 C-4.31 14.34 -6.62 13.68 -9 13 C-8.34 11.02 -7.68 9.04 -7 7 C-5.35 6.67 -3.7 6.34 -2 6 C-1.855625 5.38125 -1.71125 4.7625 -1.5625 4.125 C-1 2 -1 2 0 0 Z " fill="#C39D4E" transform="translate(420,317)"/>
<path d="M0 0 C0.33 0 0.66 0 1 0 C1 20.13 1 40.26 1 61 C-1.97 61.495 -1.97 61.495 -5 62 C-5.495 60.515 -5.495 60.515 -6 59 C-4.02 59 -2.04 59 0 59 C-0.01474869 58.31983826 -0.02949738 57.63967651 -0.04469299 56.93890381 C-0.19699616 49.86645687 -0.34178016 42.7938845 -0.48217773 35.72119141 C-0.53558187 33.08085209 -0.59090998 30.44055097 -0.64819336 27.80029297 C-0.73014809 24.00757075 -0.80520677 20.21476549 -0.87890625 16.421875 C-0.90594131 15.23946228 -0.93297638 14.05704956 -0.96083069 12.83880615 C-0.98092697 11.73796692 -1.00102325 10.63712769 -1.02172852 9.50292969 C-1.04171402 8.53474304 -1.06169952 7.5665564 -1.08229065 6.56903076 C-1.00664119 4.20733137 -0.67864114 2.25387191 0 0 Z " fill="#621A1E" transform="translate(243,212)"/>
<path d="M0 0 C0.99 0 1.98 0 3 0 C3.33 8.91 3.66 17.82 4 27 C3.34 27.33 2.68 27.66 2 28 C0.01039227 24.6816923 -0.2361745 22.20040301 -0.1953125 18.359375 C-0.18886719 17.28945312 -0.18242187 16.21953125 -0.17578125 15.1171875 C-0.15902344 14.00601563 -0.14226562 12.89484375 -0.125 11.75 C-0.11597656 10.62335938 -0.10695313 9.49671875 -0.09765625 8.3359375 C-0.07410658 5.55707635 -0.0412168 2.7786461 0 0 Z " fill="#CEB281" transform="translate(268,162)"/>
<path d="M0 0 C0.33 0 0.66 0 1 0 C1 4.29 1 8.58 1 13 C-3.29 12.67 -7.58 12.34 -12 12 C-11.67 13.65 -11.34 15.3 -11 17 C-7.04 17.33 -3.08 17.66 1 18 C1 21.63 1 25.26 1 29 C0.67 29 0.34 29 0 29 C0 25.7 0 22.4 0 19 C-4.62 19.33 -9.24 19.66 -14 20 C-15.52150158 16.95699684 -15.23899393 14.345915 -15 11 C-14.01 10.34 -13.02 9.68 -12 9 C-12 9.66 -12 10.32 -12 11 C-8.04 11 -4.08 11 0 11 C0 7.37 0 3.74 0 0 Z " fill="#DBC392" transform="translate(235,291)"/>
<path d="M0 0 C0.99 0.66 1.98 1.32 3 2 C2.01 2.33 1.02 2.66 0 3 C-1.0194119 3.98020375 -2.02246356 4.97803008 -3 6 C-3.33 6 -3.66 6 -4 6 C-4.33 14.58 -4.66 23.16 -5 32 C-8.63790035 28.36209965 -7.36952456 22.54194709 -7.375 17.625 C-7.39949219 16.47515625 -7.42398437 15.3253125 -7.44921875 14.140625 C-7.45308594 13.03460938 -7.45695312 11.92859375 -7.4609375 10.7890625 C-7.46915527 9.77537598 -7.47737305 8.76168945 -7.48583984 7.71728516 C-6.87114027 4.27929205 -5.71056504 3.13546665 -3 1 C-2.01 0.67 -1.02 0.34 0 0 Z " fill="#CDB583" transform="translate(369,156)"/>
<path d="M0 0 C2 1.0625 2 1.0625 4 3 C4.46913089 7.37855495 4.46943529 9.29584707 2 13 C-1.51547883 12.70704343 -2.72523271 12.30709286 -5.125 9.625 C-5.74375 8.75875 -6.3625 7.8925 -7 7 C-7.98230498 5.9826127 -8.97469597 4.97403883 -10 4 C-8.68 4 -7.36 4 -6 4 C-5.67 4.66 -5.34 5.32 -5 6 C-2.97536745 6.65213292 -2.97536745 6.65213292 -1 7 C-0.67 4.69 -0.34 2.38 0 0 Z " fill="#C19E52" transform="translate(424,264)"/>
<path d="M0 0 C2.39223697 2.39223697 2.6758631 3.67759676 3 7 C2.01 8.485 2.01 8.485 1 10 C0.6373883 11.92744369 0.6373883 11.92744369 0.5859375 14.01171875 C0.54726562 14.76904297 0.50859375 15.52636719 0.46875 16.30664062 C0.4378125 17.09232422 0.406875 17.87800781 0.375 18.6875 C0.33632812 19.48478516 0.29765625 20.28207031 0.2578125 21.10351562 C0.16367506 23.06863475 0.08075368 25.0342854 0 27 C-0.66 27 -1.32 27 -2 27 C-2 30.3 -2 33.6 -2 37 C-2.33 37 -2.66 37 -3 37 C-3.25652374 24.55859856 -3.31092841 12.11024267 0 0 Z " fill="#CCB47D" transform="translate(121,169)"/>
<path d="M0 0 C0.78552246 0.01047363 1.57104492 0.02094727 2.38037109 0.03173828 C3.23115234 0.03818359 4.08193359 0.04462891 4.95849609 0.05126953 C6.29267578 0.07640625 6.29267578 0.07640625 7.65380859 0.10205078 C8.99958984 0.11558594 8.99958984 0.11558594 10.37255859 0.12939453 C12.59157445 0.15300108 14.81005937 0.18592768 17.02880859 0.22705078 C17.02880859 1.21705078 17.02880859 2.20705078 17.02880859 3.22705078 C15.47419922 3.20964844 15.47419922 3.20964844 13.88818359 3.19189453 C12.51839373 3.18251241 11.14860192 3.17341266 9.77880859 3.16455078 C9.09689453 3.15617187 8.41498047 3.14779297 7.71240234 3.13916016 C4.22615889 3.12223664 1.4422074 3.37370108 -1.97119141 4.22705078 C-1.97119141 10.82705078 -1.97119141 17.42705078 -1.97119141 24.22705078 C-2.63119141 23.89705078 -3.29119141 23.56705078 -3.97119141 23.22705078 C-4.02908147 19.76878736 -4.06474961 16.31064785 -4.09619141 12.85205078 C-4.11294922 11.86720703 -4.12970703 10.88236328 -4.14697266 9.86767578 C-4.15341797 8.92666016 -4.15986328 7.98564453 -4.16650391 7.01611328 C-4.17697754 6.14680176 -4.18745117 5.27749023 -4.19824219 4.38183594 C-3.88878354 1.44497357 -2.97580873 0.34276717 0 0 Z " fill="#81817F" transform="translate(329.97119140625,286.77294921875)"/>
<path d="M0 0 C1.37095624 3.69037278 0.60010967 5.70883835 -0.9375 9.25 C-1.31777344 10.14203125 -1.69804687 11.0340625 -2.08984375 11.953125 C-2.54037109 12.96632813 -2.54037109 12.96632813 -3 14 C-5.16874252 13.49396008 -6.99967627 13.00016187 -9 12 C-9.875 10.1875 -9.875 10.1875 -10 8 C-8.3125 5.75 -8.3125 5.75 -6 4 C-4.68 4 -3.36 4 -2 4 C-1.34 2.68 -0.68 1.36 0 0 Z " fill="#C2A058" transform="translate(432,245)"/>
<path d="M0 0 C2.5 1.5 2.5 1.5 5 4 C5.45442324 6.80138565 5.23849927 9.13800875 5 12 C4.34 12 3.68 12 3 12 C2.67 12.66 2.34 13.32 2 14 C2 13.01 2 12.02 2 11 C1.34 11 0.68 11 0 11 C-1.76062164 7.67438135 -2.10784228 6.40826005 -1.125 2.6875 C-0.568125 1.3571875 -0.568125 1.3571875 0 0 Z " fill="#C39B4A" transform="translate(430,276)"/>
<path d="M0 0 C3.08325358 -0.0582253 6.16636505 -0.09367134 9.25 -0.125 C10.55904297 -0.15013672 10.55904297 -0.15013672 11.89453125 -0.17578125 C12.73886719 -0.18222656 13.58320313 -0.18867188 14.453125 -0.1953125 C15.22817383 -0.20578613 16.00322266 -0.21625977 16.80175781 -0.22705078 C19 0 19 0 23 2 C17.72 2 12.44 2 7 2 C6.34 3.32 5.68 4.64 5 6 C4.67 6 4.34 6 4 6 C3.87625 7.299375 3.7525 8.59875 3.625 9.9375 C3.4140625 12.15234375 3.4140625 12.15234375 3 14 C2.01 14.495 2.01 14.495 1 15 C1.33 11.04 1.66 7.08 2 3 C1.34 3 0.68 3 0 3 C0 2.01 0 1.02 0 0 Z " fill="#926564" transform="translate(377,175)"/>
<path d="M0 0 C0.86625 0.556875 0.86625 0.556875 1.75 1.125 C1.75 1.785 1.75 2.445 1.75 3.125 C2.41 3.125 3.07 3.125 3.75 3.125 C3.09 4.445 2.43 5.765 1.75 7.125 C0.43 7.125 -0.89 7.125 -2.25 7.125 C-2.58 6.135 -2.91 5.145 -3.25 4.125 C-4.57 4.455 -5.89 4.785 -7.25 5.125 C-7 3.25 -7 3.25 -6.25 1.125 C-3.78477471 -0.74517091 -2.92889069 -1.13901305 0 0 Z " fill="#C49D4F" transform="translate(374.25,321.875)"/>
<path d="M0 0 C0 0.66 0 1.32 0 2 C0.99 2.33 1.98 2.66 3 3 C2.34 3 1.68 3 1 3 C0.67 4.32 0.34 5.64 0 7 C-4.29 6.01 -8.58 5.02 -13 4 C-13 3.67 -13 3.34 -13 3 C-11.906875 2.87625 -10.81375 2.7525 -9.6875 2.625 C-5.83012786 1.97120811 -3.84162005 0 0 0 Z " fill="#C7A053" transform="translate(321,56)"/>
<path d="M0 0 C-0.99 0.33 -1.98 0.66 -3 1 C-3.66 1.66 -4.32 2.32 -5 3 C-6.33599921 2.67751743 -7.66893378 2.34227417 -9 2 C-10.66965451 2.31802943 -12.33678518 2.64984951 -14 3 C-14.66 2.67 -15.32 2.34 -16 2 C-16 2.66 -16 3.32 -16 4 C-17.98 4.99 -17.98 4.99 -20 6 C-20.625 4.125 -20.625 4.125 -21 2 C-18.19975964 -0.80024036 -15.38642503 -0.49159245 -11.625 -0.6875 C-10.61566406 -0.75807617 -10.61566406 -0.75807617 -9.5859375 -0.83007812 C-6.20495144 -1.0330704 -3.22809657 -1.1008637 0 0 Z " fill="#787874" transform="translate(284,226)"/>
<path d="M0 0 C0.33 0 0.66 0 1 0 C1.33 9.24 1.66 18.48 2 28 C1.67 28 1.34 28 1 28 C1 26.35 1 24.7 1 23 C0.34 23 -0.32 23 -1 23 C-1.02714434 20.2915983 -1.04690846 17.58347279 -1.0625 14.875 C-1.07087891 14.11445313 -1.07925781 13.35390625 -1.08789062 12.5703125 C-1.10646509 8.2610356 -0.86117265 4.24483526 0 0 Z " fill="#BEA068" transform="translate(132,191)"/>
<path d="M0 0 C4.17223513 -0.33171481 6.2266167 0.41261076 9.625 2.8125 C10.38039062 3.33457031 11.13578125 3.85664062 11.9140625 4.39453125 C13.77276385 5.82510476 15.39342601 7.29621293 17 9 C13.51394686 9 10.4118321 8.74439973 7 8 C5.6875 6 5.6875 6 5 4 C4.34 3.67 3.68 3.34 3 3 C3 2.34 3 1.68 3 1 C2.01 0.67 1.02 0.34 0 0 Z " fill="#7E7E7C" transform="translate(236,101)"/>
<path d="M0 0 C5.75 0.875 5.75 0.875 8 2 C8.103125 2.61875 8.20625 3.2375 8.3125 3.875 C8.82525154 6.27174741 8.82525154 6.27174741 11.5 7.4375 C14 9 14 9 14.8125 11.6875 C14.874375 12.450625 14.93625 13.21375 15 14 C12.66317451 12.00396156 10.33030636 10.0036279 8 8 C7.25878906 7.36578125 6.51757812 6.7315625 5.75390625 6.078125 C5.03074219 5.45421875 4.30757813 4.8303125 3.5625 4.1875 C2.88316406 3.60355469 2.20382812 3.01960938 1.50390625 2.41796875 C1.00761719 1.95003906 0.51132812 1.48210937 0 1 C0 0.67 0 0.34 0 0 Z " fill="#CDB780" transform="translate(372,90)"/>
<path d="M0 0 C0.99 0.66 1.98 1.32 3 2 C3.99 2 4.98 2 6 2 C5.67 3.32 5.34 4.64 5 6 C4.01 5.67 3.02 5.34 2 5 C2.061875 6.423125 2.061875 6.423125 2.125 7.875 C2 11 2 11 0 13 C-2.1640625 13.1953125 -2.1640625 13.1953125 -4.625 13.125 C-5.44226563 13.10695313 -6.25953125 13.08890625 -7.1015625 13.0703125 C-7.72804687 13.04710937 -8.35453125 13.02390625 -9 13 C-8.67 12.34 -8.34 11.68 -8 11 C-5.35139573 10.40644386 -2.70802678 10.25790731 0 10 C0 6.7 0 3.4 0 0 Z M-2 13 C-1.34 13 -0.68 13 0 13 C-0.33 13.66 -0.66 14.32 -1 15 C-1.33 14.34 -1.66 13.68 -2 13 Z " fill="#777773" transform="translate(151,273)"/>
<path d="M0 0 C0.66 0.99 1.32 1.98 2 3 C1.01 4.485 1.01 4.485 0 6 C0.33 6.66 0.66 7.32 1 8 C-0.875 8.625 -0.875 8.625 -3 9 C-3.66 8.34 -4.32 7.68 -5 7 C-5.99 7 -6.98 7 -8 7 C-9.68236471 6.37400383 -11.3523962 5.71247732 -13 5 C-9.67200363 3.89066788 -6.46802586 3.49543227 -3 3 C-2.01 2.67 -1.02 2.34 0 2 C0 1.34 0 0.68 0 0 Z " fill="#773339" transform="translate(377,190)"/>
<path d="M0 0 C0.66 1.32 1.32 2.64 2 4 C1.01 4.495 1.01 4.495 0 5 C3.63 5.33 7.26 5.66 11 6 C11 6.33 11 6.66 11 7 C5.72 7 0.44 7 -5 7 C-5.33 6.01 -5.66 5.02 -6 4 C-4.02 2.68 -2.04 1.36 0 0 Z " fill="#AA7071" transform="translate(262,328)"/>
<path d="M0 0 C1.09054687 0.32484375 1.09054687 0.32484375 2.203125 0.65625 C9.63062572 2.71309635 16.31054453 3.36811223 24 3 C20.26625267 5.39415859 16.91991516 5.26727419 12.5625 5.25 C11.26441406 5.25515625 9.96632813 5.2603125 8.62890625 5.265625 C5.2644161 5.01935446 3.00735953 4.46022081 0 3 C0 2.01 0 1.02 0 0 Z " fill="#D1BC86" transform="translate(380,324)"/>
<path d="M0 0 C2.3395281 3.50929215 2.9025015 6.74660285 3.625 10.8125 C3.7590625 11.51181641 3.893125 12.21113281 4.03125 12.93164062 C4.77860783 17.00779124 5.1437737 20.83709794 5 25 C2.41205531 21.99542967 1.58168396 19.95355144 1.26953125 16.015625 C1.18896484 15.08105469 1.10839844 14.14648438 1.02539062 13.18359375 C0.95513672 12.21550781 0.88488281 11.24742187 0.8125 10.25 C0.73064453 9.26644531 0.64878906 8.28289062 0.56445312 7.26953125 C0.36453969 4.84705077 0.17683483 2.4242563 0 0 Z " fill="#D6C18E" transform="translate(434,161)"/>
<path d="M0 0 C0.66 0.33 1.32 0.66 2 1 C1.34 5.62 0.68 10.24 0 15 C-0.33 13.68 -0.66 12.36 -1 11 C-1.66 11 -2.32 11 -3 11 C-2.67 10.01 -2.34 9.02 -2 8 C-2 8.66 -2 9.32 -2 10 C-1.34 10 -0.68 10 0 10 C0 6.7 0 3.4 0 0 Z M-6 10 C-5.01 10.33 -4.02 10.66 -3 11 C-4.15173355 13.46800047 -5.04783565 15.04783565 -7 17 C-7.04254356 15.00045254 -7.04080783 12.99958364 -7 11 C-6.67 10.67 -6.34 10.34 -6 10 Z " fill="#CFB174" transform="translate(437,293)"/>
<path d="M0 0 C0.69738281 0.00902344 1.39476562 0.01804688 2.11328125 0.02734375 C3.82566958 0.05080112 5.53788004 0.08666896 7.25 0.125 C7.25 0.455 7.25 0.785 7.25 1.125 C6.26257813 1.24617188 5.27515625 1.36734375 4.2578125 1.4921875 C2.97648437 1.65976562 1.69515625 1.82734375 0.375 2 C-1.53925781 2.24363281 -1.53925781 2.24363281 -3.4921875 2.4921875 C-6.82164227 2.82377473 -6.82164227 2.82377473 -8.75 5.125 C-9.74 5.785 -10.73 6.445 -11.75 7.125 C-11.75 5.475 -11.75 3.825 -11.75 2.125 C-8.00764681 -0.32489101 -4.30774581 -0.10586143 0 0 Z " fill="#A2A2A1" transform="translate(274.75,255.875)"/>
<path d="M0 0 C0 0.66 0 1.32 0 2 C-0.99 2 -1.98 2 -3 2 C-3.33 2.99 -3.66 3.98 -4 5 C-4.99 5 -5.98 5 -7 5 C-9.68767578 7.43750025 -9.68767578 7.43750025 -12 10 C-12.99 9.67 -13.98 9.34 -15 9 C-4.89320388 0 -4.89320388 0 0 0 Z " fill="#D0B984" transform="translate(231,278)"/>
<path d="M0 0 C0.734375 1.67578125 0.734375 1.67578125 1 4 C-0.546875 6.54296875 -0.546875 6.54296875 -2.75 9.1875 C-3.46671875 10.06792969 -4.1834375 10.94835937 -4.921875 11.85546875 C-7 14 -7 14 -10 15 C-8.44759763 10.03231242 -5.48945219 5.82132943 -2 2 C-1.34 2 -0.68 2 0 2 C0 1.34 0 0.68 0 0 Z " fill="#CAB481" transform="translate(156,97)"/>
<path d="M0 0 C0 0.66 0 1.32 0 2 C-0.54269531 2.26554687 -1.08539063 2.53109375 -1.64453125 2.8046875 C-2.71767578 3.33449219 -2.71767578 3.33449219 -3.8125 3.875 C-4.52019531 4.22304688 -5.22789062 4.57109375 -5.95703125 4.9296875 C-8.21246418 6.0656486 -8.21246418 6.0656486 -11 8 C-13.32387947 8.39387788 -15.65793749 8.73486085 -18 9 C-16.35136874 5.70273748 -12.79189039 4.84209148 -9.5625 3.375 C-8.52125977 2.88773438 -8.52125977 2.88773438 -7.45898438 2.390625 C-2.27092634 0 -2.27092634 0 0 0 Z " fill="#CBB281" transform="translate(217,54)"/>
<path d="M0 0 C0.99 0.33 1.98 0.66 3 1 C3 1.99 3 2.98 3 4 C3.99 4.33 4.98 4.66 6 5 C6 5.66 6 6.32 6 7 C6.66 7.33 7.32 7.66 8 8 C3.25753764 7.05150753 -1.55378451 5.44621549 -5 2 C-3.35 2 -1.7 2 0 2 C0 1.34 0 0.68 0 0 Z " fill="#CCAF79" transform="translate(378,329)"/>
<path d="M0 0 C0.33 0 0.66 0 1 0 C1.33 5.28 1.66 10.56 2 16 C1.01 16.33 0.02 16.66 -1 17 C-1.02684679 14.35409986 -1.04676357 11.70846904 -1.0625 9.0625 C-1.07087891 8.30775391 -1.07925781 7.55300781 -1.08789062 6.77539062 C-1.09652441 4.85005687 -1.05224333 2.92464419 -1 1 C-0.67 0.67 -0.34 0.34 0 0 Z " fill="#CCB081" transform="translate(354,286)"/>
<path d="M0 0 C0.99 1.32 1.98 2.64 3 4 C-0.75 5.125 -0.75 5.125 -3 4 C-3.66 5.32 -4.32 6.64 -5 8 C-5.66 8 -6.32 8 -7 8 C-7 7.34 -7 6.68 -7 6 C-7.94875 5.855625 -8.8975 5.71125 -9.875 5.5625 C-13 5 -13 5 -15 4 C-14.67 3.34 -14.34 2.68 -14 2 C-13.195625 2.5259375 -13.195625 2.5259375 -12.375 3.0625 C-9.17328648 4.32633428 -7.29417633 3.89217276 -4 3 C-1.67780342 1.55269907 -1.67780342 1.55269907 0 0 Z " fill="#865657" transform="translate(283,190)"/>
<path d="M0 0 C0.33 0 0.66 0 1 0 C1.2097564 5.76830091 1.11567168 11.54677139 -1 17 C-1.99 17.66 -2.98 18.32 -4 19 C-3.26309887 12.51527007 -1.64681249 6.30760257 0 0 Z " fill="#D2BC8D" transform="translate(421,230)"/>
<path d="M0 0 C0.36337162 3.27034459 0.28544288 4.60883753 -1.6875 7.3125 C-4.39116247 9.28544288 -5.72965541 9.36337162 -9 9 C-4 0 -4 0 0 0 Z " fill="#CFBA86" transform="translate(282,182)"/>
<path d="M0 0 C0.99 0 1.98 0 3 0 C3.33 2.31 3.66 4.62 4 7 C5.32 7.33 6.64 7.66 8 8 C8 9.65 8 11.3 8 13 C4.72653393 9.90347804 2.02490044 7.04980088 0 3 C0 2.01 0 1.02 0 0 Z " fill="#CCAD7A" transform="translate(356,310)"/>
<path d="M0 0 C6.69286035 3.16389762 6.69286035 3.16389762 8.125 7.0625 C8 10 8 10 6.5625 11.875 C6.046875 12.24625 5.53125 12.6175 5 13 C4.34 11.68 3.68 10.36 3 9 C3.66 8.34 4.32 7.68 5 7 C4.175 6.21625 3.35 5.4325 2.5 4.625 C0 2 0 2 0 0 Z " fill="#D1B375" transform="translate(417,258)"/>
<path d="M0 0 C0.99 1.485 0.99 1.485 2 3 C2.7734375 3.99 2.7734375 3.99 3.5625 5 C5.71534734 9.49289879 5.74978495 14.07335189 6 19 C4.12501563 16.18752345 3.04059662 13.77642791 1.875 10.625 C1.52179688 9.68914062 1.16859375 8.75328125 0.8046875 7.7890625 C0.00986798 5.03420261 -0.15533287 2.84776932 0 0 Z " fill="#CBB781" transform="translate(124,241)"/>
<path d="M0 0 C0.6708712 1.6232687 1.33657029 3.24867578 2 4.875 C2.556875 6.23238281 2.556875 6.23238281 3.125 7.6171875 C4 10 4 10 4 12 C3.01 12 2.02 12 1 12 C0.67 9.36 0.34 6.72 0 4 C-0.61875 3.87625 -1.2375 3.7525 -1.875 3.625 C-4 3 -4 3 -6 1 C-3 0 -3 0 0 0 Z " fill="#945E61" transform="translate(423,336)"/>
<path d="M0 0 C0.66 0 1.32 0 2 0 C2 1.65 2 3.3 2 5 C2.66 5 3.32 5 4 5 C5.32229189 7.64458379 5.09677194 9.67761301 5.0625 12.625 C5.05347656 13.62789062 5.04445313 14.63078125 5.03515625 15.6640625 C5.02355469 16.43492187 5.01195312 17.20578125 5 18 C3.31099986 14.89370844 2.29373333 11.84794949 1.375 8.4375 C1.11460937 7.48746094 0.85421875 6.53742188 0.5859375 5.55859375 C0 3 0 3 0 0 Z " fill="#CEB785" transform="translate(416,151)"/>
<path d="M0 0 C1.87351592 2.81027388 2.4205796 4.23868658 3.0625 7.4375 C3.65073277 10.31060384 4.26884309 13.15948775 5 16 C4.34 15.34 3.68 14.68 3 14 C2.01 14.495 2.01 14.495 1 15 C0.63684334 13.0641649 0.28477269 11.12624752 -0.0625 9.1875 C-0.25972656 8.10855469 -0.45695313 7.02960938 -0.66015625 5.91796875 C-1 3 -1 3 0 0 Z " fill="#D0BA8B" transform="translate(136,231)"/>
<path d="M0 0 C0.33 0 0.66 0 1 0 C2.4487669 12.32566299 2.4487669 12.32566299 1 18 C0.01 18.66 -0.98 19.32 -2 20 C-1.34 13.4 -0.68 6.8 0 0 Z " fill="#D5BD88" transform="translate(428,290)"/>
<path d="M0 0 C0.74507813 0.05671875 1.49015625 0.1134375 2.2578125 0.171875 C4.08935108 0.31276258 5.91981352 0.46751884 7.75 0.625 C7.75 0.955 7.75 1.285 7.75 1.625 C6.21279297 1.71587891 6.21279297 1.71587891 4.64453125 1.80859375 C3.28384305 1.89305026 1.92316657 1.97769567 0.5625 2.0625 C-0.11103516 2.10181641 -0.78457031 2.14113281 -1.47851562 2.18164062 C-5.14699102 2.41427565 -8.66694206 2.79707011 -12.25 3.625 C-12.25 2.965 -12.25 2.305 -12.25 1.625 C-8.37328894 -1.04789025 -4.45732397 -0.39375653 0 0 Z " fill="#C8B27E" transform="translate(395.25,261.375)"/>
<path d="M0 0 C3.62174279 3.62174279 4.87956218 9.03284894 5.1875 14.0625 C5.125625 14.701875 5.06375 15.34125 5 16 C4.01 15.67 3.02 15.34 2 15 C1.66048381 13.43883181 1.32867456 11.87598662 1 10.3125 C0.814375 9.44238281 0.62875 8.57226562 0.4375 7.67578125 C0.01027953 5.06287036 -0.07616201 2.64186962 0 0 Z " fill="#CDB685" transform="translate(429,145)"/>
<path d="M0 0 C1.32 0.66 2.64 1.32 4 2 C3.67 3.32 3.34 4.64 3 6 C1.35 6.33 -0.3 6.66 -2 7 C-1.125 2.25 -1.125 2.25 0 0 Z " fill="#C19947" transform="translate(366,316)"/>
<path d="M0 0 C1.98 0 3.96 0 6 0 C6 0.66 6 1.32 6 2 C5.195625 2.12375 4.39125 2.2475 3.5625 2.375 C2.2940625 2.684375 2.2940625 2.684375 1 3 C0.67 3.66 0.34 4.32 0 5 C0.66 5.33 1.32 5.66 2 6 C-0.31 6.33 -2.62 6.66 -5 7 C-5 6.34 -5 5.68 -5 5 C-4.34 5 -3.68 5 -3 5 C-3 4.01 -3 3.02 -3 2 C-2.01 2 -1.02 2 0 2 C0 1.34 0 0.68 0 0 Z " fill="#B79C7B" transform="translate(236,273)"/>
<path d="M0 0 C3 1 3 1 4.6875 4.375 C6 8 6 8 6 11 C6.66 11 7.32 11 8 11 C8 12.65 8 14.3 8 16 C5.70351643 13.10414095 3.95652443 10.1827969 2.3125 6.875 C1.65701172 5.57175781 1.65701172 5.57175781 0.98828125 4.2421875 C0 2 0 2 0 0 Z " fill="#CFB784" transform="translate(130,261)"/>
<path d="M0 0 C5.61 0 11.22 0 17 0 C18.26026798 2.52053595 17.91874445 3.8542098 17.5625 6.625 C17.46066406 7.44226563 17.35882813 8.25953125 17.25390625 9.1015625 C17.17011719 9.72804687 17.08632813 10.35453125 17 11 C16.67 11 16.34 11 16 11 C15.67 7.7 15.34 4.4 15 1 C10.05 1 5.1 1 0 1 C0 0.67 0 0.34 0 0 Z " fill="#A38081" transform="translate(248,175)"/>
<path d="M0 0 C0.99 0.33 1.98 0.66 3 1 C2.34 1 1.68 1 1 1 C0.71382813 1.57234375 0.42765625 2.1446875 0.1328125 2.734375 C-1.578125 6.15625 -3.2890625 9.578125 -5 13 C-5.33 13 -5.66 13 -6 13 C-5.67 10.03 -5.34 7.06 -5 4 C-4.01 4 -3.02 4 -2 4 C-1.34 2.68 -0.68 1.36 0 0 Z " fill="#D0BA85" transform="translate(371,271)"/>
<path d="M0 0 C2.34917898 2.15341406 3.82443004 4.21667937 5.25 7.0625 C5.60578125 7.75472656 5.9615625 8.44695312 6.328125 9.16015625 C6.54984375 9.76730469 6.7715625 10.37445313 7 11 C6.67 11.66 6.34 12.32 6 13 C5.34 12.67 4.68 12.34 4 12 C4 11.01 4 10.02 4 9 C3.01 8.67 2.02 8.34 1 8 C0.67 5.36 0.34 2.72 0 0 Z " fill="#CBB07D" transform="translate(417,120)"/>
<path d="M0 0 C5.94 0 11.88 0 18 0 C18.33 0.66 18.66 1.32 19 2 C18.02417969 2.06058594 17.04835938 2.12117188 16.04296875 2.18359375 C14.13451172 2.30927734 14.13451172 2.30927734 12.1875 2.4375 C10.92292969 2.51871094 9.65835937 2.59992188 8.35546875 2.68359375 C5.00818107 2.87184547 5.00818107 2.87184547 2 4 C2 3.01 2 2.02 2 1 C1.34 0.67 0.68 0.34 0 0 Z " fill="#935E5D" transform="translate(386,343)"/>
<path d="M0 0 C0.66 0 1.32 0 2 0 C3.32 3.3 4.64 6.6 6 10 C5.34 10.66 4.68 11.32 4 12 C3.32332002 10.75539217 2.65905281 9.50403104 2 8.25 C1.62875 7.55390625 1.2575 6.8578125 0.875 6.140625 C0 4 0 4 0 0 Z " fill="#CBB280" transform="translate(211,311)"/>
<path d="M0 0 C0.33 0.66 0.66 1.32 1 2 C0.67 2.66 0.34 3.32 0 4 C-0.99 4.33 -1.98 4.66 -3 5 C-3.28875 5.66 -3.5775 6.32 -3.875 7 C-5 9 -5 9 -7.625 9.75 C-8.40875 9.8325 -9.1925 9.915 -10 10 C-9.09373216 8.7010161 -8.17450463 7.41106833 -7.25 6.125 C-6.73953125 5.40570313 -6.2290625 4.68640625 -5.703125 3.9453125 C-3.92496453 1.91429435 -2.47298393 1.02144988 0 0 Z " fill="#D1BB88" transform="translate(371,260)"/>
<path d="M0 0 C1.37095624 3.69037278 0.60010967 5.70883835 -0.9375 9.25 C-1.31777344 10.14203125 -1.69804687 11.0340625 -2.08984375 11.953125 C-2.54037109 12.96632813 -2.54037109 12.96632813 -3 14 C-4.32 13.67 -5.64 13.34 -7 13 C-6.34 12.67 -5.68 12.34 -5 12 C-4.1655256 10.2519144 -4.1655256 10.2519144 -3.5 8.1875 C-2.49475794 5.34526737 -1.43961495 2.65775067 0 0 Z " fill="#D3C093" transform="translate(432,245)"/>
<path d="M0 0 C3.24532559 4.86798838 2.40274918 10.48281763 1.5 16.125 C1.335 16.74375 1.17 17.3625 1 18 C0.34 18 -0.32 18 -1 18 C-0.505 9.09 -0.505 9.09 0 0 Z " fill="#D3B98C" transform="translate(424,206)"/>
<path d="M0 0 C3.2441189 1.04275251 4.60194664 2.61240491 6.3125 5.4375 C8 9 8 9 7 12 C6.67 11.01 6.34 10.02 6 9 C5.01 8.67 4.02 8.34 3 8 C3 7.01 3 6.02 3 5 C2.0206121 3.97980427 1.02104551 2.97850195 0 2 C0 1.34 0 0.68 0 0 Z " fill="#814B4E" transform="translate(400,177)"/>
<path d="M0 0 C4.46133727 1.13720362 8.20441387 2.35459149 12 5 C12 5.33 12 5.66 12 6 C10.02 6.33 8.04 6.66 6 7 C5.34 5.35 4.68 3.7 4 2 C2.35 2 0.7 2 -1 2 C-0.67 1.34 -0.34 0.68 0 0 Z " fill="#CBB17E" transform="translate(347,57)"/>
<path d="M0 0 C0.99 0.33 1.98 0.66 3 1 C2.34 1 1.68 1 1 1 C1 2.65 1 4.3 1 6 C0.01 6.33 -0.98 6.66 -2 7 C-2 7.66 -2 8.32 -2 9 C-2.66 9 -3.32 9 -4 9 C-3.46930939 5.17902761 -2.50298434 2.93828597 0 0 Z " fill="#C2A56C" transform="translate(216,288)"/>
<path d="M0 0 C1.00289063 0.10183594 2.00578125 0.20367187 3.0390625 0.30859375 C3.80992187 0.39238281 4.58078125 0.47617188 5.375 0.5625 C5.375 0.8925 5.375 1.2225 5.375 1.5625 C1.085 2.2225 -3.205 2.8825 -7.625 3.5625 C-7.625 2.5725 -7.625 1.5825 -7.625 0.5625 C-4.89657939 -0.80171031 -3.01546682 -0.31557211 0 0 Z " fill="#777776" transform="translate(310.625,225.4375)"/>
<path d="M0 0 C0.99 0.33 1.98 0.66 3 1 C1.875 2.5 1.875 2.5 0 4 C-3.09501208 4.25265405 -5.20129973 4.39935013 -8 3 C-8 2.34 -8 1.68 -8 1 C-6.865625 1.020625 -5.73125 1.04125 -4.5625 1.0625 C-1.18424326 1.41577477 -1.18424326 1.41577477 0 0 Z " fill="#C8B289" transform="translate(372,187)"/>
<path d="M0 0 C1.9375 0.3125 1.9375 0.3125 4 1 C5 4 5 4 3.5625 7.1875 C2.7890625 8.5796875 2.7890625 8.5796875 2 10 C1.67 10 1.34 10 1 10 C1.33 7.69 1.66 5.38 2 3 C1.01 3.33 0.02 3.66 -1 4 C-0.67 2.68 -0.34 1.36 0 0 Z " fill="#8D8D8C" transform="translate(230,175)"/>
<path d="M0 0 C2.4368763 2.4368763 2.84077523 3.57666749 3 7 C1.0625 9.8125 1.0625 9.8125 -1 12 C-1.14285714 3.42857143 -1.14285714 3.42857143 0 0 Z " fill="#C4AA71" transform="translate(121,169)"/>
<path d="M0 0 C0.75 1.5625 0.75 1.5625 1 4 C-0.02332869 6.54719859 -1.27272296 8.86333587 -3 11 C-3.99 11.33 -4.98 11.66 -6 12 C-4.43358249 7.69235185 -2.31663844 3.93828536 0 0 Z " fill="#CDB383" transform="translate(139,122)"/>
<path d="M0 0 C2.31 0 4.62 0 7 0 C5 1.5 5 1.5 3 3 C2.34 3.5775 1.68 4.155 1 4.75 C-1 6 -1 6 -3.25 5.6875 C-3.8275 5.460625 -4.405 5.23375 -5 5 C-2 3 -2 3 0 3 C0 2.01 0 1.02 0 0 Z " fill="#C9B07D" transform="translate(201,75)"/>
<path d="M0 0 C0 0.33 0 0.66 0 1 C-0.68707031 1.10957031 -1.37414062 1.21914063 -2.08203125 1.33203125 C-2.98308594 1.49058594 -3.88414062 1.64914062 -4.8125 1.8125 C-5.70582031 1.96332031 -6.59914062 2.11414063 -7.51953125 2.26953125 C-10.18321256 3.05395393 -11.25690322 3.88627799 -13 6 C-13.33 5.01 -13.66 4.02 -14 3 C-9.43672206 -0.53286034 -5.50366792 -0.32374517 0 0 Z " fill="#86555B" transform="translate(143,326)"/>
<path d="M0 0 C1.32 0 2.64 0 4 0 C4.33 0.66 4.66 1.32 5 2 C5.99 2.33 6.98 2.66 8 3 C9.1875 5.5625 9.1875 5.5625 10 8 C9.01 8 8.02 8 7 8 C5 5.6875 5 5.6875 3 3 C2.01769502 1.9826127 1.02530403 0.97403883 0 0 Z " fill="#CBB17E" transform="translate(414,268)"/>
<path d="M0 0 C0.99 0.66 1.98 1.32 3 2 C2.01 2.33 1.02 2.66 0 3 C-0.495 3.515625 -0.99 4.03125 -1.5 4.5625 C-3 6 -3 6 -6 6 C-5.8125 4.125 -5.8125 4.125 -5 2 C-2.625 0.625 -2.625 0.625 0 0 Z " fill="#CBB27E" transform="translate(369,156)"/>
<path d="M0 0 C3.96 1.98 3.96 1.98 8 4 C4 6 4 6 1 7 C0 4 0 4 0 0 Z " fill="#6F1C21" transform="translate(128,353)"/>
<path d="M0 0 C1.41791408 0.45445964 2.83428046 0.91374944 4.25 1.375 C5.43335938 1.75785156 5.43335938 1.75785156 6.640625 2.1484375 C8.86627958 2.95173667 10.90931672 3.89711662 13 5 C10.43640146 6.28179927 9.28041467 5.87670752 6.5 5.3125 C5.30890625 5.09013672 5.30890625 5.09013672 4.09375 4.86328125 C2 4 2 4 0.71875 1.91796875 C0.4815625 1.28503906 0.244375 0.65210938 0 0 Z " fill="#906968" transform="translate(225,334)"/>
<path d="M0 0 C-0.33 0.66 -0.66 1.32 -1 2 C-0.34 2 0.32 2 1 2 C1.33 2.99 1.66 3.98 2 5 C1.29875 4.71125 0.5975 4.4225 -0.125 4.125 C-3.05452503 2.97866412 -6.00921653 1.97374346 -9 1 C-9 0.67 -9 0.34 -9 0 C-2.25 -1.125 -2.25 -1.125 0 0 Z " fill="#D3B782" transform="translate(412,263)"/>
<path d="M0 0 C0.33 0 0.66 0 1 0 C1.33 3.63 1.66 7.26 2 11 C1.34 11 0.68 11 0 11 C-1.62651522 7.74696956 -1.11453156 4.60774398 -1 1 C-0.67 0.67 -0.34 0.34 0 0 Z " fill="#CCB688" transform="translate(134,219)"/>
<path d="M0 0 C0.763125 0.20625 1.52625 0.4125 2.3125 0.625 C1.3225 1.12 1.3225 1.12 0.3125 1.625 C-0.3475 1.295 -1.0075 0.965 -1.6875 0.625 C-2.0175 1.945 -2.3475 3.265 -2.6875 4.625 C-4.3375 4.955 -5.9875 5.285 -7.6875 5.625 C-6.02612914 1.79106724 -4.59035464 -0.6405146 0 0 Z " fill="#855458" transform="translate(246.6875,176.375)"/>
<path d="M0 0 C5.57142857 5.14285714 5.57142857 5.14285714 6 9 C2.00003714 7.66667905 1.16217663 5.5042173 -1 2 C-0.67 1.34 -0.34 0.68 0 0 Z " fill="#D0BB85" transform="translate(409,108)"/>
<path d="M0 0 C2.9375 0.75 2.9375 0.75 6 2 C6.875 4.125 6.875 4.125 7 6 C7.66 6 8.32 6 9 6 C8.67 6.66 8.34 7.32 8 8 C6.6589523 7.24266726 5.32730219 6.46867264 4 5.6875 C2.88625 5.04361328 2.88625 5.04361328 1.75 4.38671875 C1.1725 3.92910156 0.595 3.47148438 0 3 C0 2.01 0 1.02 0 0 Z " fill="#CEBA86" transform="translate(361,80)"/>
<path d="M0 0 C0.66 0.33 1.32 0.66 2 1 C2 2.32 2 3.64 2 5 C0.1875 5.625 0.1875 5.625 -2 6 C-2.99 5.34 -3.98 4.68 -5 4 C-3.35 2.68 -1.7 1.36 0 0 Z M-4 6 C-2 7 -2 7 -2 7 Z " fill="#CBB075" transform="translate(179,75)"/>
<path d="M0 0 C0 2.62113708 -0.31292445 4.50935112 -1 7 C-2.65 6.67 -4.3 6.34 -6 6 C-4 4 -2 2 0 0 Z " fill="#D4BC83" transform="translate(419,317)"/>
<path d="M0 0 C4.875 3.625 4.875 3.625 6 7 C4.35 7.33 2.7 7.66 1 8 C0.67 5.36 0.34 2.72 0 0 Z " fill="#CDB671" transform="translate(257,283)"/>
<path d="M0 0 C-0.99 0.33 -1.98 0.66 -3 1 C-3 1.66 -3 2.32 -3 3 C-5.64 3.33 -8.28 3.66 -11 4 C-7.84441727 0.34616736 -4.73375145 -1.57791715 0 0 Z " fill="#CBAD78" transform="translate(383,256)"/>
<path d="M0 0 C3.465 1.98 3.465 1.98 7 4 C6.01 4.33 5.02 4.66 4 5 C3.67 5.66 3.34 6.32 3 7 C2.34 6.67 1.68 6.34 1 6 C1 5.34 1 4.68 1 4 C0.34 3.34 -0.32 2.68 -1 2 C-0.67 1.34 -0.34 0.68 0 0 Z " fill="#6D6D6C" transform="translate(266,118)"/>
<path d="M0 0 C-2.90094791 1.45047396 -4.55972596 0.45356803 -7.625 -0.4375 C-8.62789063 -0.72496094 -9.63078125 -1.01242188 -10.6640625 -1.30859375 C-11.43492187 -1.53675781 -12.20578125 -1.76492187 -13 -2 C-13 -2.33 -13 -2.66 -13 -3 C-7.1307609 -4.40861738 -4.69390126 -3.77801809 0 0 Z " fill="#D4BC8F" transform="translate(321,62)"/>
<path d="M0 0 C-0.99 0.33 -1.98 0.66 -3 1 C-3 1.66 -3 2.32 -3 3 C-5.97 3 -8.94 3 -12 3 C-8.52582963 0.68388642 -4.04642977 -2.02321489 0 0 Z " fill="#D1BA80" transform="translate(237,48)"/>
<path d="M0 0 C0 0.66 0 1.32 0 2 C-3.63 2.33 -7.26 2.66 -11 3 C-6.577168 -0.317124 -5.28089024 -0.30466674 0 0 Z " fill="#8D585D" transform="translate(348,359)"/>
<path d="M0 0 C3.40312738 1.05875074 6.01353231 2.00902154 9 4 C9 4.66 9 5.32 9 6 C7.68 6 6.36 6 5 6 C5 5.01 5 4.02 5 3 C4.01 3.33 3.02 3.66 2 4 C1.34 2.68 0.68 1.36 0 0 Z " fill="#895759" transform="translate(239,340)"/>
<path d="M0 0 C1.32 0 2.64 0 4 0 C4.33 1.65 4.66 3.3 5 5 C4.01 5.33 3.02 5.66 2 6 C1.34 5.01 0.68 4.02 0 3 C-0.66 2.67 -1.32 2.34 -2 2 C-1.34 1.34 -0.68 0.68 0 0 Z " fill="#C7A65E" transform="translate(242,320)"/>
<path d="M0 0 C2.18277634 2.18277634 3.56742037 4.27127689 5 7 C4.67 7.66 4.34 8.32 4 9 C2.68 8.67 1.36 8.34 0 8 C0 5.36 0 2.72 0 0 Z " fill="#D1BB86" transform="translate(365,307)"/>
<path d="M0 0 C0.33 0.66 0.66 1.32 1 2 C1.66 2 2.32 2 3 2 C2.67 3.65 2.34 5.3 2 7 C1.67 7 1.34 7 1 7 C0.67 8.98 0.34 10.96 0 13 C-0.33 13 -0.66 13 -1 13 C-1.0272415 11.58344207 -1.04650467 10.16672955 -1.0625 8.75 C-1.07410156 7.96109375 -1.08570313 7.1721875 -1.09765625 6.359375 C-1.00385306 4.09308998 -0.63241063 2.1711105 0 0 Z " fill="#DDC08D" transform="translate(211,297)"/>
<path d="M0 0 C0.99 0.66 1.98 1.32 3 2 C1.25 6.875 1.25 6.875 -1 8 C-0.67 6.68 -0.34 5.36 0 4 C-0.99 3.67 -1.98 3.34 -3 3 C-2.01 2.01 -1.02 1.02 0 0 Z " fill="#CCAB6F" transform="translate(159,112)"/>
<path d="M0 0 C0.99 0.99 1.98 1.98 3 3 C2.34 3 1.68 3 1 3 C1 3.66 1 4.32 1 5 C-1.49064888 5.68707555 -3.37886292 6 -6 6 C-4.02 4.02 -2.04 2.04 0 0 Z " fill="#CDB379" transform="translate(163,90)"/>
<path d="M0 0 C0.66 0.33 1.32 0.66 2 1 C2 2.32 2 3.64 2 5 C1.34 5 0.68 5 0 5 C-0.33 5.99 -0.66 6.98 -1 8 C-1.625 5.125 -1.625 5.125 -2 2 C-1.34 1.34 -0.68 0.68 0 0 Z " fill="#C7A969" transform="translate(356,301)"/>
<path d="M0 0 C0.61875 0.350625 1.2375 0.70125 1.875 1.0625 C2.57625 1.371875 3.2775 1.68125 4 2 C4.66 1.67 5.32 1.34 6 1 C6 2.32 6 3.64 6 5 C4.02 5.33 2.04 5.66 0 6 C0 4.02 0 2.04 0 0 Z " fill="#6A6A69" transform="translate(161,178)"/>
<path d="M0 0 C1.32 0.66 2.64 1.32 4 2 C3.67 3.32 3.34 4.64 3 6 C2.01 5.67 1.02 5.34 0 5 C0 4.34 0 3.68 0 3 C-0.99 2.67 -1.98 2.34 -3 2 C-2.01 1.34 -1.02 0.68 0 0 Z " fill="#787876" transform="translate(234,102)"/>
<path d="M0 0 C0.66 0.33 1.32 0.66 2 1 C1.01 2.485 1.01 2.485 0 4 C-0.66 4 -1.32 4 -2 4 C-2.33 4.99 -2.66 5.98 -3 7 C-3.33 6.01 -3.66 5.02 -4 4 C-4.66 3.67 -5.32 3.34 -6 3 C-5.195625 2.690625 -4.39125 2.38125 -3.5625 2.0625 C-1.10919595 1.23664655 -1.10919595 1.23664655 0 0 Z " fill="#CBAF7A" transform="translate(174,98)"/>
<path d="M0 0 C0.33 0.99 0.66 1.98 1 3 C-2.20062687 4.60031344 -4.72271806 3.03173691 -8 2 C-4.77208445 -0.1519437 -3.71599191 -0.20086443 0 0 Z " fill="#C9B275" transform="translate(330,62)"/>
<path d="M0 0 C0.33 0 0.66 0 1 0 C0.88637738 1.4800841 0.75877092 2.95910074 0.625 4.4375 C0.52058594 5.67306641 0.52058594 5.67306641 0.4140625 6.93359375 C0.27742187 7.61550781 0.14078125 8.29742187 0 9 C-0.99 9.495 -0.99 9.495 -2 10 C-2.1953125 3.9453125 -2.1953125 3.9453125 -2 2 C-1.34 1.34 -0.68 0.68 0 0 Z " fill="#747471" transform="translate(207,290)"/>
<path d="M0 0 C1.32 0 2.64 0 4 0 C4 0.99 4 1.98 4 3 C3.34 3 2.68 3 2 3 C2 3.66 2 4.32 2 5 C1.01 5.33 0.02 5.66 -1 6 C-0.67 4.02 -0.34 2.04 0 0 Z " fill="#666665" transform="translate(328,226)"/>
<path d="M0 0 C2.4375 0.75 2.4375 0.75 5 2 C5.33 3.32 5.66 4.64 6 6 C3.36 4.68 0.72 3.36 -2 2 C-1.34 1.34 -0.68 0.68 0 0 Z " fill="#858788" transform="translate(278,152)"/>
<path d="M0 0 C0.66 0.33 1.32 0.66 2 1 C-0.475 5.455 -0.475 5.455 -3 10 C-3.33 10 -3.66 10 -4 10 C-4 8.35 -4 6.7 -4 5 C-3.01 4.67 -2.02 4.34 -1 4 C-0.26676204 1.98491642 -0.26676204 1.98491642 0 0 Z " fill="#C5AF79" transform="translate(154,123)"/>
<path d="M0 0 C0.33 0 0.66 0 1 0 C1 1.98 1 3.96 1 6 C1.66 6.33 2.32 6.66 3 7 C0 8 0 8 -2.1875 7.0625 C-2.785625 6.711875 -3.38375 6.36125 -4 6 C-2.68 6 -1.36 6 0 6 C0 5.01 0 4.02 0 3 C-0.66 2.67 -1.32 2.34 -2 2 C-1.34 1.34 -0.68 0.68 0 0 Z " fill="#813A3F" transform="translate(282,367)"/>
<path d="M0 0 C0.99 0 1.98 0 3 0 C2.40138258 2.35171131 1.73075648 4.6859378 1 7 C0.01 7.495 0.01 7.495 -1 8 C-1.125 2.25 -1.125 2.25 0 0 Z " fill="#CEB781" transform="translate(433,309)"/>
<path d="M0 0 C0.33 1.32 0.66 2.64 1 4 C0.34 4 -0.32 4 -1 4 C-1.33 5.98 -1.66 7.96 -2 10 C-2.66 9.67 -3.32 9.34 -4 9 C-2.94124926 5.59687262 -1.99097846 2.98646769 0 0 Z " fill="#CBB582" transform="translate(360,271)"/>
<path d="M0 0 C4.75 0.75 4.75 0.75 7 3 C2.545 3.495 2.545 3.495 -2 4 C-1.34 2.68 -0.68 1.36 0 0 Z " fill="#CAAD72" transform="translate(406,254)"/>
<path d="M0 0 C0.66 1.32 1.32 2.64 2 4 C2.66 4 3.32 4 4 4 C4.33 4.99 4.66 5.98 5 7 C3.68 6.67 2.36 6.34 1 6 C1 5.01 1 4.02 1 3 C-0.32 2.67 -1.64 2.34 -3 2 C-2.01 1.34 -1.02 0.68 0 0 Z " fill="#8E5657" transform="translate(358,186)"/>
<path d="M0 0 C3.00617269 3.00617269 2.59585316 5.82381598 3 10 C0.51280729 7.08025204 -0.58572305 4.83206182 -1 1 C-0.67 0.67 -0.34 0.34 0 0 Z " fill="#CFB884" transform="translate(413,141)"/>
<path d="M0 0 C0.66 0.99 1.32 1.98 2 3 C1.01 3.99 0.02 4.98 -1 6 C-2.32 5.34 -3.64 4.68 -5 4 C-3.35 3.34 -1.7 2.68 0 2 C0 1.34 0 0.68 0 0 Z " fill="#895458" transform="translate(377,190)"/>
<path d="M0 0 C0.99 1.32 1.98 2.64 3 4 C-0.75 5.125 -0.75 5.125 -3 4 C-3.33 4.66 -3.66 5.32 -4 6 C-4.66 5.34 -5.32 4.68 -6 4 C-4.02 2.68 -2.04 1.36 0 0 Z " fill="#9F7376" transform="translate(283,190)"/>
<path d="M0 0 C0.33 0 0.66 0 1 0 C1.36923077 4.55384615 1.36923077 4.55384615 -0.5 6.8125 C-0.995 7.204375 -1.49 7.59625 -2 8 C-2.66 7.67 -3.32 7.34 -4 7 C-3.67 5.68 -3.34 4.36 -3 3 C-2.34 3 -1.68 3 -1 3 C-0.67 2.01 -0.34 1.02 0 0 Z " fill="#535350" transform="translate(230,182)"/>
<path d="M0 0 C1.98 0.66 3.96 1.32 6 2 C6 2.99 6 3.98 6 5 C5.01 5 4.02 5 3 5 C1.3125 2.5 1.3125 2.5 0 0 Z " fill="#D6BE87" transform="translate(387,104)"/>
<path d="M0 0 C2 1 2 1 2 1 Z " fill="#FFFFFF" transform="translate(234,307)"/>
<path d="" fill="#FFFFFF" transform="translate(0,0)"/>
</svg>
